<svg width="24" height="24" viewBox="0 0 24 24" fill="none" xmlns="http://www.w3.org/2000/svg">
<path d="M22.5 12C22.5 17.799 17.799 22.5 12 22.5C6.20101 22.5 1.5 17.799 1.5 12C1.5 6.20101 6.20101 1.5 12 1.5C17.799 1.5 22.5 6.20101 22.5 12ZM7.83701 8.73843C7.71985 8.85559 7.71985 9.04554 7.83701 9.16269L10.6744 12L7.83705 14.8373C7.71989 14.9545 7.71989 15.1445 7.83705 15.2616L8.73861 16.1632C8.85577 16.2803 9.04572 16.2803 9.16288 16.1632L12.0002 13.3259L14.8374 16.1631C14.9545 16.2802 15.1445 16.2802 15.2616 16.1631L16.1632 15.2615C16.2803 15.1443 16.2803 14.9544 16.1632 14.8372L13.326 12L16.1632 9.16282C16.2804 9.04566 16.2804 8.85571 16.1632 8.73855L15.2617 7.83699C15.1445 7.71983 14.9546 7.71983 14.8374 7.83699L12.0002 10.6742L9.16284 7.83687C9.04568 7.71971 8.85573 7.71971 8.73857 7.83687L7.83701 8.73843Z" fill="#FF4D4D"/>
</svg>
