<svg xmlns="http://www.w3.org/2000/svg" width="24" height="24" viewBox="0 0 24 24" fill="none">
  <g filter="url(#filter0_d_623_35102)">
    <mask id="path-1-outside-1_623_35102" maskUnits="userSpaceOnUse" x="4" y="4" width="16" height="16" fill="black">
      <rect fill="white" x="4" y="4" width="16" height="16"/>
      <path fill-rule="evenodd" clip-rule="evenodd" d="M18.5131 7.83647C19.162 7.18759 19.162 6.13554 18.5131 5.48666C17.8642 4.83778 16.8121 4.83778 16.1633 5.48666L12 9.64987L7.83675 5.48666C7.18786 4.83778 6.1358 4.83778 5.48691 5.48666C4.83802 6.13554 4.83802 7.18759 5.48691 7.83647L9.65016 11.9997L5.48667 16.1631C4.83778 16.812 4.83778 17.8641 5.48667 18.5129C6.13556 19.1618 7.18761 19.1618 7.8365 18.5129L12 14.3495L16.1635 18.5129C16.8124 19.1618 17.8644 19.1618 18.5133 18.5129C19.1622 17.8641 19.1622 16.812 18.5133 16.1631L14.3498 11.9997L18.5131 7.83647Z"/>
    </mask>
    <path fill-rule="evenodd" clip-rule="evenodd" d="M18.5131 7.83647C19.162 7.18759 19.162 6.13554 18.5131 5.48666C17.8642 4.83778 16.8121 4.83778 16.1633 5.48666L12 9.64987L7.83675 5.48666C7.18786 4.83778 6.1358 4.83778 5.48691 5.48666C4.83802 6.13554 4.83802 7.18759 5.48691 7.83647L9.65016 11.9997L5.48667 16.1631C4.83778 16.812 4.83778 17.8641 5.48667 18.5129C6.13556 19.1618 7.18761 19.1618 7.8365 18.5129L12 14.3495L16.1635 18.5129C16.8124 19.1618 17.8644 19.1618 18.5133 18.5129C19.1622 17.8641 19.1622 16.812 18.5133 16.1631L14.3498 11.9997L18.5131 7.83647Z" fill="white"/>
    <path d="M18.5131 5.48666L19.2202 4.77955L19.2202 4.77955L18.5131 5.48666ZM18.5131 7.83647L19.2202 8.54358V8.54358L18.5131 7.83647ZM16.1633 5.48666L15.4561 4.77955V4.77955L16.1633 5.48666ZM12 9.64987L11.2929 10.357C11.6834 10.7475 12.3166 10.7475 12.7071 10.357L12 9.64987ZM7.83675 5.48666L8.54385 4.77955V4.77955L7.83675 5.48666ZM5.48691 5.48666L6.19402 6.19377L5.48691 5.48666ZM5.48691 7.83647L4.77981 8.54358H4.77981L5.48691 7.83647ZM9.65016 11.9997L10.3573 12.7068C10.5448 12.5192 10.6502 12.2649 10.6502 11.9997C10.6502 11.7345 10.5448 11.4801 10.3573 11.2926L9.65016 11.9997ZM5.48667 16.1631L4.77956 15.456L4.77956 15.456L5.48667 16.1631ZM5.48667 18.5129L6.19377 17.8058H6.19377L5.48667 18.5129ZM7.8365 18.5129L7.1294 17.8058V17.8058L7.8365 18.5129ZM12 14.3495L12.7071 13.6424C12.3166 13.2519 11.6834 13.2519 11.2929 13.6424L12 14.3495ZM16.1635 18.5129L15.4564 19.22L16.1635 18.5129ZM18.5133 18.5129L19.2204 19.22H19.2204L18.5133 18.5129ZM18.5133 16.1631L17.8062 16.8702L18.5133 16.1631ZM14.3498 11.9997L13.6427 11.2926C13.4552 11.4801 13.3498 11.7345 13.3498 11.9997C13.3498 12.2649 13.4552 12.5192 13.6427 12.7068L14.3498 11.9997ZM17.806 6.19377C18.0643 6.45213 18.0643 6.871 17.806 7.12936L19.2202 8.54358C20.2596 7.50417 20.2596 5.81896 19.2202 4.77955L17.806 6.19377ZM16.8704 6.19377C17.1287 5.93541 17.5476 5.93541 17.806 6.19377L19.2202 4.77955C18.1808 3.74015 16.4956 3.74015 15.4561 4.77955L16.8704 6.19377ZM12.7071 10.357L16.8704 6.19377L15.4561 4.77955L11.2929 8.94275L12.7071 10.357ZM7.12965 6.19377L11.2929 10.357L12.7071 8.94275L8.54385 4.77955L7.12965 6.19377ZM6.19402 6.19377C6.45238 5.93541 6.87128 5.93541 7.12965 6.19377L8.54385 4.77955C7.50444 3.74015 5.81922 3.74015 4.77981 4.77955L6.19402 6.19377ZM6.19402 7.12936C5.93566 6.871 5.93566 6.45213 6.19402 6.19377L4.77981 4.77955C3.74039 5.81896 3.74039 7.50417 4.77981 8.54358L6.19402 7.12936ZM10.3573 11.2926L6.19402 7.12936L4.77981 8.54358L8.94306 12.7068L10.3573 11.2926ZM6.19377 16.8702L10.3573 12.7068L8.94306 11.2926L4.77956 15.456L6.19377 16.8702ZM6.19377 17.8058C5.93541 17.5475 5.93541 17.1286 6.19377 16.8702L4.77956 15.456C3.74014 16.4954 3.74015 18.1806 4.77956 19.22L6.19377 17.8058ZM7.1294 17.8058C6.87103 18.0642 6.45214 18.0642 6.19377 17.8058L4.77956 19.22C5.81898 20.2594 7.50419 20.2594 8.5436 19.22L7.1294 17.8058ZM11.2929 13.6424L7.1294 17.8058L8.5436 19.22L12.7071 15.0566L11.2929 13.6424ZM16.8706 17.8058L12.7071 13.6424L11.2929 15.0566L15.4564 19.22L16.8706 17.8058ZM17.8062 17.8058C17.5479 18.0642 17.129 18.0642 16.8706 17.8058L15.4564 19.22C16.4958 20.2594 18.181 20.2594 19.2204 19.22L17.8062 17.8058ZM17.8062 16.8702C18.0646 17.1286 18.0646 17.5475 17.8062 17.8058L19.2204 19.22C20.2599 18.1806 20.2599 16.4954 19.2204 15.456L17.8062 16.8702ZM13.6427 12.7068L17.8062 16.8702L19.2204 15.456L15.0569 11.2926L13.6427 12.7068ZM17.806 7.12936L13.6427 11.2926L15.0569 12.7068L19.2202 8.54358L17.806 7.12936Z" fill="#244CBD" mask="url(#path-1-outside-1_623_35102)"/>
  </g>
  <defs>
    <filter id="filter0_d_623_35102" x="2.89228" y="4" width="18.2154" height="18.2149" filterUnits="userSpaceOnUse" color-interpolation-filters="sRGB">
      <feFlood flood-opacity="0" result="BackgroundImageFix"/>
      <feColorMatrix in="SourceAlpha" type="matrix" values="0 0 0 0 0 0 0 0 0 0 0 0 0 0 0 0 0 0 127 0" result="hardAlpha"/>
      <feOffset dy="1.10772"/>
      <feGaussianBlur stdDeviation="0.553858"/>
      <feComposite in2="hardAlpha" operator="out"/>
      <feColorMatrix type="matrix" values="0 0 0 0 0.141176 0 0 0 0 0.298039 0 0 0 0 0.741176 0 0 0 0.3 0"/>
      <feBlend mode="normal" in2="BackgroundImageFix" result="effect1_dropShadow_623_35102"/>
      <feBlend mode="normal" in="SourceGraphic" in2="effect1_dropShadow_623_35102" result="shape"/>
    </filter>
  </defs>
</svg>