<?xml version="1.0" encoding="utf-8"?>
<!-- Generator: Adobe Illustrator 27.8.1, SVG Export Plug-In . SVG Version: 6.00 Build 0)  -->
<svg version="1.1" id="图层_1" xmlns="http://www.w3.org/2000/svg" xmlns:xlink="http://www.w3.org/1999/xlink" x="0px" y="0px"
	 viewBox="0 0 600 600" style="enable-background:new 0 0 600 600;" xml:space="preserve">
<style type="text/css">
	.st0{fill:#6C56FF;}
	.st1{fill:#F4B400;}
	.st2{fill:#EA6868;}
	.st3{fill:#FFFFFF;}
	.st4{fill:#CC5858;}
	.st5{fill:#D2E7FC;}
	.st6{fill:#928AFF;}
	.st7{clip-path:url(#SVGID_00000033362587804125298000000003538206624582780847_);}
	.st8{fill:#A4A4B2;}
	.st9{fill:#E8D269;}
	.st10{fill:#EA71E2;}
</style>
<rect x="0" class="st0" width="600" height="600"/>
<g>
	<g>
		<g>
			<g>
				<path class="st1" d="M472.6,424.2L456.8,407c-2.3-2.5-6-2.7-8.2-0.5l-6.3,6.2c-2.2,2.2-2.2,6.1,0.1,8.5l15.9,17.1
					c2.3,2.5,6,2.7,8.2,0.5l6.3-6.2C475,430.5,474.9,426.6,472.6,424.2z M469.2,425.6c1.2,1.2,1.2,3.2,0.1,4.3l-5.4,5.3
					c-1.1,1.1-3,1-4.1-0.2l-14-15.1c-1.2-1.2-1.2-3.2-0.1-4.3l5.4-5.3c1.1-1.1,3-1,4.1,0.2L469.2,425.6z"/>
				<path d="M452.3,405c1.6,0,3.2,0.7,4.5,2l15.9,17.1c2.3,2.5,2.4,6.3,0.1,8.5l-6.3,6.2c-1,1-2.4,1.5-3.8,1.5c-1.6,0-3.2-0.7-4.5-2
					l-15.9-17.1c-2.3-2.5-2.4-6.3-0.1-8.5l6.3-6.2C449.6,405.5,450.9,405,452.3,405 M462,436c0.7,0,1.4-0.3,1.9-0.8l5.4-5.3
					c1.1-1.1,1.1-3-0.1-4.3l-14-15.1c-0.6-0.7-1.4-1-2.2-1c-0.7,0-1.4,0.3-1.9,0.8l-5.4,5.3c-1.1,1.1-1.1,3,0.1,4.3l14,15.1
					C460.4,435.6,461.2,436,462,436 M452.3,401c-2.5,0-4.8,1-6.6,2.7l-6.3,6.2c-3.7,3.7-3.7,10,0,14.1l15.9,17.1
					c1.9,2.1,4.6,3.3,7.4,3.3c2.5,0,4.8-1,6.6-2.7l6.3-6.2c3.7-3.7,3.7-10,0-14.1l-15.9-17.1C457.8,402.2,455.1,401,452.3,401
					L452.3,401z M449.2,417.7l3.7-3.7l12.8,13.8l-3.7,3.7L449.2,417.7L449.2,417.7z"/>
			</g>
		</g>
	</g>
	<g>
		<g>
			<path class="st1" d="M453.6,416.4l-2,2c-0.4,0.4-2-0.6-3.5-2.3L429.4,396c-1.5-1.7-2.4-3.3-2-3.8l2-2c0.4-0.4,2,0.6,3.5,2.3
				l18.7,20.1C453.1,414.3,454,416,453.6,416.4z"/>
			<path d="M429.6,390.2c0.6,0,2,0.9,3.3,2.4l18.7,20.1c1.5,1.7,2.4,3.3,2,3.8l-2,2c-0.1,0.1-0.1,0.1-0.3,0.1c-0.6,0-2-0.9-3.3-2.4
				L429.4,396c-1.5-1.7-2.4-3.3-2-3.8l2-2C429.4,390.2,429.5,390.2,429.6,390.2 M429.6,386.2L429.6,386.2c-1.2,0-2.3,0.4-3.1,1.3
				l-2,2c-3,3-0.1,7.1,1.9,9.3l18.7,20.1c2.2,2.4,4.3,3.6,6.2,3.6c1.2,0,2.3-0.4,3.1-1.3l2-2c3-3,0.1-7.1-1.9-9.3l-18.7-20.1
				C433.6,387.4,431.5,386.2,429.6,386.2L429.6,386.2z"/>
		</g>
	</g>
</g>
<g>
	<path class="st2" d="M181.9,273.9c36.5-24.5,35.4-54.1,60.5-120.4s126-127,202-32.3s79.9,258.1-62.5,354.2s-271.3,9.8-298.6-26.1
		c-32.7-42.9-46.5-118.6,19.8-142.6C153.6,288.4,162.6,286.8,181.9,273.9z"/>
	<path d="M246.4,521.2c-21.8,0-41.2-3.2-57.5-7.5c-24-6.3-47.7-16.7-68.6-30c-16.6-10.7-30.7-22.7-38.7-33.2
		c-19.4-25.4-34.5-66.3-24.5-100.2c6.3-21.3,21.9-37.1,45.3-45.5c10.5-3.8,19-6.8,26.5-9.4c28.3-10,36.8-13,51.9-23.1l0,0
		c26.1-17.5,32.4-37.3,43.9-73.1c4.3-13.3,9.1-28.4,15.9-46.4c7.2-19.1,20.6-37.6,37.6-52.2c18.2-15.6,39.2-25.7,60.6-29
		c27.7-4.4,68.8,0.5,107.2,48.4c20,24.9,35.1,54.9,43.8,86.6c9,32.7,11,67.4,6,100.3C488.5,354.7,463.1,423,383,477
		C333.1,510.6,285.9,521.2,246.4,521.2z M181.9,273.9l1.1,1.7c-15.5,10.4-24.9,13.7-52.7,23.6c-7.5,2.7-16,5.7-26.5,9.4
		C81.4,316.7,67,331.1,61,351.5c-9.6,32.5,5.1,72,23.9,96.6c13.1,17.2,51.9,47.8,105.1,61.8c16,4.2,35.1,7.3,56.4,7.3
		c38.9,0,85.3-10.4,134.4-43.5c78.9-53.2,103.9-120.4,111.1-167.4c9.8-64.6-8.5-133.3-49-183.9C405.6,76,366,71.3,339.3,75.5
		c-20.7,3.3-40.9,13-58.6,28.1c-16.5,14.2-29.5,32.1-36.5,50.6c-6.8,17.8-11.6,32.9-15.8,46.2c-11.4,35.5-18.2,56.9-45.5,75.2
		L181.9,273.9z"/>
</g>
<g>
	<circle class="st3" cx="472.6" cy="267.8" r="58.1"/>
	<path d="M472.6,327.9c-33.1,0-60.1-27-60.1-60.1s27-60.1,60.1-60.1c33.1,0,60.1,27,60.1,60.1S505.8,327.9,472.6,327.9z
		 M472.6,211.7c-30.9,0-56.1,25.2-56.1,56.1s25.2,56.1,56.1,56.1s56.1-25.2,56.1-56.1S503.6,211.7,472.6,211.7z"/>
</g>
<g>
	<circle class="st3" cx="389" cy="275.3" r="58.1"/>
	<path d="M389,335.4c-33.1,0-60.1-27-60.1-60.1s27-60.1,60.1-60.1c33.1,0,60.1,27,60.1,60.1S422.1,335.4,389,335.4z M389,219.2
		c-30.9,0-56.1,25.2-56.1,56.1c0,30.9,25.2,56.1,56.1,56.1s56.1-25.2,56.1-56.1C445,244.3,419.9,219.2,389,219.2z"/>
</g>
<path d="M405.3,235.8c-15,0-27.5,13.7-30.3,32l9.8,8.1l-9.9,6.3c2.5,18.6,15.2,32.8,30.4,32.8c17.1,0,30.9-17.7,30.9-39.6
	S422.3,235.8,405.3,235.8z"/>
<path d="M489.4,229.8c-15,0-27.5,13.7-30.3,32l9.8,8.1l-9.9,6.3c2.5,18.6,15.2,32.8,30.4,32.8c17.1,0,30.9-17.7,30.9-39.6
	S506.5,229.8,489.4,229.8z"/>
<path class="st4" d="M170.7,307.8c13.6-7.4,49.1-21.9,74.4-102.3c17-54.2,45,4.2,9.5,66c-24.3,42.3-50.4,57.4-71.5,59.5
	C162,333,157,315.3,170.7,307.8z"/>
<ellipse cx="406.4" cy="385.1" rx="35.3" ry="22.7"/>
<path class="st3" d="M432.1,374.9c-0.6-0.4-1.2-0.8-1.8-1.3c-6.2-4-14.5-6.2-23.3-6.2s-17.1,2.2-23.3,6.2c-2.1,1.4-3.8,2.8-5.2,4.4
	C383.1,379.8,400.3,384.7,432.1,374.9z"/>
<rect x="395.6" y="366.9" transform="matrix(0.9939 -0.11 0.11 0.9939 -38.8608 46.0264)" width="4" height="16.5"/>
<rect x="411.3" y="365.4" transform="matrix(0.9939 -0.1101 0.1101 0.9939 -38.6172 47.7631)" width="4" height="16.5"/>
<g>
	<path class="st5" d="M246.5,123.6c0,0-8.8-45,11.3-54.4s65.9-7.6,101.7-21c39.4-14.9,83.4-13,93,8.7c9.6,21.7,17.3,49,17.3,49
		l-40.9,25.2l-144.3,10.8L246.5,123.6z"/>
	<path d="M284.2,143.9l-39.4-19l-0.2-1c-0.4-1.9-8.9-46.6,12.4-56.6c9.7-4.5,24.6-6.5,41.9-8.7c19.2-2.5,41-5.3,59.9-12.4
		c37.6-14.2,84.8-14.5,95.6,9.8c9.5,21.6,17.3,49,17.4,49.3l0.4,1.5L429.6,133l-0.5,0L284.2,143.9z M248.3,122.2l36.7,17.7
		l143.3-10.8l39.2-24.1c-1.7-5.9-8.6-28.8-16.8-47.3c-8.6-19.4-50-22.9-90.5-7.6c-19.3,7.3-41.3,10.1-60.8,12.6
		c-17,2.2-31.6,4.1-40.8,8.3C241.7,78.9,247.2,115.7,248.3,122.2z"/>
</g>
<g>
	<path class="st5" d="M468.2,156.4l16,38.7c80.7-31.2,35.6-69.4,18.4-83.7c-25-20.8-138.6-2.4-185,7.9s-87.9-1.8-105.4,9.2
		s-27.7,20.8-22.7,33.6c5,12.8,43.4,18,43.4,18l5.4-15.2"/>
	<path d="M483.1,197.7l-16.8-40.5l3.7-1.5l15.3,36.9c26.4-10.5,41-22.7,43.2-36.2c3-18.4-17.3-35.3-27.1-43.4
		c-10.4-8.6-39.1-11.1-83-7.3c-37.1,3.3-77.2,10.4-100.3,15.6c-23.4,5.2-45.9,4.8-64,4.4c-18.2-0.4-32.5-0.7-40.8,4.5
		c-19.7,12.4-25.8,21.1-21.9,31.2c3.5,9.1,28.8,14.8,40.2,16.5l4.8-13.7l3.8,1.3l-5.9,16.8l-1.6-0.2c-0.4-0.1-9.9-1.3-20.1-4.2
		c-14.2-4-22.6-9.1-24.9-15c-5.5-14.2,5.4-24.6,23.5-36c9.3-5.8,24.1-5.5,43-5.1c17.9,0.4,40.1,0.8,63.1-4.3
		c42.9-9.6,160-29.6,186.7-7.5c10.4,8.6,31.9,26.4,28.5,47.1c-2.5,15.3-18.5,28.7-47.5,40L483.1,197.7z"/>
</g>
<g>
	<path class="st5" d="M214.5,161.5c0,0,35.9,7.9,73.8,1.8c37.9-6.2,74.7-3.2,99.7,0.3c25,3.5,71.1,1.2,98.9-18.2
		s45.3-11.2,43.8,10.1"/>
	<path d="M257.8,167.6c-24.6,0-43.5-4.1-43.8-4.1c-1.1-0.2-1.8-1.3-1.5-2.4c0.2-1.1,1.3-1.8,2.4-1.5c0.4,0.1,36,7.8,73,1.7
		c30.3-4.9,64-4.8,100.3,0.3c24,3.4,69.8,1.4,97.5-17.9c15.6-10.9,29.2-14.1,38.1-9c6.4,3.6,9.5,11.1,8.8,20.9
		c-0.1,1.1-1.1,1.9-2.1,1.8c-1.1-0.1-1.9-1-1.8-2.1c0.6-8.2-1.8-14.3-6.8-17.1c-7.4-4.2-19.8-1-33.9,8.8
		c-28.6,20-75.7,22.1-100.3,18.6c-35.9-5.1-69.2-5.2-99.1-0.3C278,167,267.4,167.6,257.8,167.6z"/>
</g>
<path class="st6" d="M353.9,61.9c0.8-0.1,1.6,0.1,2.4,0.6c0.7,0.5,1.1,1,1.4,1.5c6.2,7.9,9.3,11.9,9.4,12c0.2,0.1,0.4,0.2,0.6,0.1
	c0.4-0.1,0.7-0.4,0.9-1.1l5.3-14.2c0.6-1.2,1.5-1.9,2.6-2.1c3.6-0.4,5.5-0.5,5.5-0.3c0.8,0.1,1.5,0.6,2.2,1.4c0.6,0.8,0.9,1.5,1,2.2
	c0.1,0.4,1.2,10.7,3.4,30.8c0,0.9-0.2,1.7-0.5,2.2c-0.7,1.2-1.5,1.9-2.6,2.1c-2.6,0.3-4,0.3-4,0.2c-0.9-0.2-1.6-0.6-2.3-1.4
	c-0.5-0.7-0.9-1.5-1-2.4l-1.1-15.9l0,0c-0.1-0.3-0.3-0.4-0.5-0.3c-0.3,0-0.5,0.4-0.5,1c0,0-0.7,2.4-1.9,7.2
	c-0.4,1.4-0.6,2.3-0.8,2.8c-0.3,0.8-0.9,1.4-1.8,1.8c-0.3,0.1-1,0.3-2.3,0.6c-1.1,0.2-2.1-0.2-3-1.1c-0.4-0.4-1.2-1.6-2.5-3.5
	c0,0-0.7-0.9-1.8-2.7c-1.6-2.3-2.4-3.5-2.5-3.6c-0.1-0.1-0.2-0.1-0.3-0.1c-0.2,0-0.3,0.2-0.3,0.6c2.4,10.1,3.7,15.2,3.7,15.3
	c0.2,1.5-0.2,2.8-1.2,3.9c-0.6,0.5-1.2,0.9-2,1c0,0-0.8,0.2-2.4,0.6c-1.3,0.2-2.6-0.4-3.6-1.9c-0.4-0.6-0.7-1.6-1-3.2
	c-3.4-17.3-5.3-26.7-5.6-28.4c-0.2-1,0-2.1,0.6-3.1c0.6-1,1.6-1.6,3-1.8L353.9,61.9z"/>
<path class="st6" d="M424,46.8c4.5,0,8.9,1.3,13.1,4c1,0.6,2.2,1.6,3.6,3c1.6,1.9,2.7,3.6,3.4,5c1,2.4,1.6,5.1,1.6,8.2v0.7
	c0,3.3-1.1,6.2-3.3,8.7c-0.6,0.6-0.9,1.3-0.9,2v0.1c0,0.5,0.3,1.4,1,3c2,4.8,3.1,7.5,3.2,8c0.1,0.5,0.2,0.9,0.2,1.4
	c0,2-0.9,3.6-2.8,4.9c-2.5,1.2-4,1.8-4.6,1.8h-0.8c-1.5,0-2.9-0.7-4.2-2.1c-4.4-6.8-6.8-10.5-7.2-11.1c-0.5-0.6-1.3-0.9-2.5-0.9
	c-0.7,0-1.8-0.1-3.4-0.4h-0.1c-1,0-1.6,0.6-2,1.7c-0.3,4.8-0.5,7.6-0.6,8.4c-0.4,1.4-1,2.5-1.9,3.2c-1.1,0.9-2.3,1.4-3.5,1.4
	c-3.7-0.1-5.5-0.3-5.5-0.4c-0.8-0.2-1.6-0.6-2.4-1.4c-1.1-1.2-1.7-2.6-1.7-4c0-0.3,0.7-12.6,2-37c0.1-2.3,0.3-3.6,0.5-3.9
	c0.2-0.6,0.5-1.2,1.1-1.9c1.2-1.2,2.5-1.8,3.9-1.8h0c0.6,0,3,0.1,7.1,0.4C419.5,47.2,421.7,46.8,424,46.8z M419.1,70
	c0,0.8,0.5,1.4,1.4,1.9c1,0.3,1.8,0.4,2.7,0.4c2.9,0,5-1.1,6.4-3.2c0.4-0.9,0.6-1.7,0.6-2.6v-0.6c0-2.3-1-4-2.9-5.2
	c-1.4-0.8-2.9-1.2-4.5-1.2h-0.6c-1.7,0-2.6,0.8-2.6,2.5C419.5,62.2,419.4,64.9,419.1,70z"/>
<g>
	<defs>
		<path id="SVGID_1_" d="M286,162.2c0,0,12.6-3,42.9-4c30.3-1,48.6,3.3,62.1,4c13.5,0.7,38.4,3.8,65.7-5.1
			c27.2-8.8,31.5-14.9,35.5-17.1c4-2.2,17.3-9.3,28.4-6.3c11.1,3-5.3-63.2-5.3-63.2L397.6,42.8L256.7,96.1l-6.4,54.9L286,162.2z"/>
	</defs>
	<clipPath id="SVGID_00000161610773008899944690000015944450590716937864_">
		<use xlink:href="#SVGID_1_"  style="overflow:visible;"/>
	</clipPath>
	<g style="clip-path:url(#SVGID_00000161610773008899944690000015944450590716937864_);">
		<path class="st6" d="M308.4,125.6c5.1,1.4,8.8,4,11.1,7.8c1.6,3,2.1,5.9,1.3,8.7c-0.7,2.4-2.1,4.5-4.2,6.2
			c-0.7,0.4-1.1,0.7-1.1,1.1l0,0.1c-0.1,0.4,0.1,0.9,0.5,1.6c0.7,1.4,1.1,2.6,1.1,3.6c0.2,1.6,0.1,3.1-0.3,4.6l-0.2,0.7
			c-0.9,3.3-3.4,5.7-7.6,7.3c-1.3,0.4-2.5,0.7-3.6,0.8c-4.3,0.6-8.6,0.3-12.8-0.9l-0.4-0.1c-4.2-1.2-7.4-2.9-9.3-5.2
			c-0.6-0.8-0.9-1.5-0.8-2.1c-0.1,0,0.3-1.8,1.1-5.4c3.7-17.4,5.7-26.4,5.9-27c0.4-1.5,1.6-2.6,3.4-3.2c0.8-0.2,1.6-0.2,2.3,0
			l2.1,0.6c0.1,0,0.9,0,2.4-0.2C302.5,124.5,305.6,124.9,308.4,125.6z M300.3,135.5l-1.3,5.8c0.1,1,0.5,1.6,1.3,1.8
			c0.9,0.2,2.1,0.3,3.7,0.2c1.8-0.3,3.2-1,3.9-2.2c0.2-0.3,0.3-0.6,0.4-0.9l0-0.1c0.4-1.4-0.2-2.8-1.8-4.1c-1-0.7-2.1-1.2-3.3-1.5
			c-1.1-0.3-1.8-0.3-2.1,0C300.7,134.7,300.4,135,300.3,135.5z M296.7,151.9c-0.7,3.4-1.1,5.1-1,5.1c0.2,0.8,0.6,1.4,1.2,1.5
			c1.1,0.3,2.6,0.4,4.5,0.2c2-0.4,3.2-1.2,3.5-2.4l0-0.1c0.3-1.1-0.2-2.2-1.5-3.4c-1-0.9-2.4-1.6-4.3-2.1l-0.1,0
			c-0.8-0.2-1.5,0-2,0.6C296.9,151.5,296.8,151.7,296.7,151.9z"/>
		<path class="st6" d="M368.6,122.6L368.6,122.6c1.4,0.5,2.5,1.5,3.2,3.1c0.4,1,0.6,1.9,0.4,2.8c0.1,0-0.2,1.2-0.9,3.6
			c-0.6,1.7-1.9,2.9-4,3.6c-1,0.3-2.3,0.2-3.9-0.4l-7.5-2.1c-0.7,0.1-1.2,0.4-1.3,0.9c-0.7,2-0.9,3.1-0.7,3.2c0.1,0.5,0.4,0.8,0.9,1
			l4.8,1.5c2.4,0.8,3.8,2.5,4.1,5.2c0,0.8-0.1,1.6-0.4,2.4c-0.6,2-1.7,3.3-3.1,3.8c-0.9,0.5-1.9,0.7-2.9,0.6
			c-0.5-0.1-0.8-0.1-1.2-0.2c-0.6-0.2-1-0.4-1.3-0.5l-2.8-0.9l-0.2-0.1c-0.7-0.2-1.2,0-1.7,0.7l-0.1,0.2c-0.7,2.3-0.9,3.4-0.7,3.5
			c-0.1,0.2,0.2,0.5,0.8,0.8c0.2,0.1,3.4,0.9,9.3,2.5c1.9,0.6,3.1,2,3.7,4.3c0.2,0.9,0,2.3-0.6,4.2c0,0.1-0.1,0.4-0.2,0.7
			c-0.5,1.6-1.7,2.8-3.5,3.6c-1.2,0.4-2.5,0.4-3.7,0c-11.8-3-18.1-4.6-18.8-4.8c-1.6-0.5-2.7-1.7-3.4-3.6c-0.4-1.1-0.3-2.7,0.4-4.8
			c1.2-23.7,5.6-34.2,8.4-36.7c1.4-1.2,2.8-2.2,4.4-2.9c1.3-0.7,3-0.7,5.1,0C362.2,120.8,368,122.4,368.6,122.6z"/>
		<path class="st6" d="M402.1,112.9h5.8c3,0,4.9,1.4,5.9,4.1c0.3,0.6,6,12.3,17.1,35.2c0.7,1.3,1.1,2.4,1.1,3.3v0.4
			c0,1.5-0.6,2.8-1.8,4c-0.6,0.6-1.8,1.2-3.6,1.7c-1.9,0.7-3.2,1.1-4,1.1h-0.1c-2,0-3.7-1-4.9-3L406,135c-0.3-0.4-0.7-0.6-1.2-0.6h0
			c-0.7,0-1.1,0.4-1.4,1.1l-3.2,8.1c2.3,0.1,3.6,0.2,3.9,0.5c0.6,0.2,1.2,0.6,1.9,1.2c1.2,1.2,1.8,2.5,1.8,4
			c-0.1,2.8-0.3,4.3-0.5,4.4c-0.4,1.3-1.3,2.4-2.8,3.2c-1,0.4-1.8,0.6-2.5,0.6l-7.1-0.4c-0.6,1.9-1.2,3.2-1.8,3.7
			c-1.2,1.4-2.6,2-4.2,2h-0.2c-0.8,0-2.4-0.4-4.7-1.2c-1.2-0.6-2.2-1.5-2.7-2.7c-0.4-0.8-0.6-1.6-0.6-2.4v-0.2
			c0-0.9,0.4-2.2,1.3-4.1l13.6-33.8c0.7-2,1.4-3.3,1.9-3.7C398.6,113.5,400.1,112.9,402.1,112.9z"/>
		<path class="st6" d="M447.5,115.1c1.6,0,3,0.8,4.2,2.3c0,0.1,4.7,7.5,14.1,22.2c0.3,0.2,0.5,0.3,0.7,0.3c0.7-0.1,1-0.5,1-1.1
			c0.3-11.4,0.5-17.6,0.6-18.9c0.2-0.9,0.4-1.5,0.6-1.8c1.2-2,2.8-2.9,4.7-2.9c3.1,0.1,4.7,0.2,4.7,0.4c1.3,0.4,2.3,1.2,3,2.3
			c0.6,1,1,2,1,3.1c-1.3,25.5-2,38.7-2.1,39.7c-0.3,1.2-0.8,2.2-1.6,3c-1.2,1.1-2.4,1.6-3.6,1.6c-4.2-0.1-6.3-0.2-6.3-0.3
			c-1.3-0.4-2.2-1-2.9-1.8c-0.4-0.6-1.5-2.3-3.1-5.2l-10.6-18.1c-0.2-0.3-0.5-0.4-0.8-0.4c-0.7,0.1-1,0.5-1,1l2,18.6
			c0,1.7-0.7,3.2-2.1,4.5c-1.1,0.8-2.1,1.1-3.1,1.1c-2.1,0.3-3.4,0.5-3.8,0.5c-1.2,0-2.3-0.4-3.4-1.3c-0.9-0.8-1.4-1.5-1.5-2
			c-0.4-0.7-0.6-1.9-0.6-3.6c-1.3-23.3-2-35.7-2-37.2v-0.1c0-1.7,0.8-3.2,2.5-4.5c0.8-0.6,2.2-1,4.2-1
			C444.6,115.2,446.3,115.1,447.5,115.1z"/>
	</g>
</g>
<path class="st8" d="M485.6,191.9c0,0,28.4-10,38.8-26.3s0.2-32-14-28.5c-14.2,3.6-17.6,7.7-24.8,12c-7.2,4.3-14.8,7.5-14.8,7.5
	L485.6,191.9z"/>
<g>
	<path class="st9" d="M381.9,475.6c10.3-7,19.9-14.3,28.7-21.9c-152.5-21.3-233.8-120.8-261.8-163c-10.4,3.9-24.3,8.6-45.6,16.3
		c-66.4,24-52.6,99.6-19.8,142.6C110.6,485.3,239.5,571.6,381.9,475.6z"/>
	<path d="M246.4,521.4c-21.8,0-41.2-3.2-57.5-7.5c-24-6.3-47.7-16.7-68.6-30c-16.6-10.7-30.7-22.7-38.7-33.2
		c-19.4-25.4-34.5-66.3-24.5-100.2c6.3-21.3,21.9-37.1,45.3-45.5c10.4-3.8,19-6.8,26.5-9.4c7.7-2.7,13.8-4.9,19.1-6.9l1.5-0.6
		l0.9,1.3c27.8,41.7,108.7,140.9,260.5,162.1l4.4,0.6l-3.3,2.9c-9.1,7.8-18.8,15.3-28.9,22.1l0,0
		C333.1,510.9,285.9,521.4,246.4,521.4z M147.9,293c-5,1.8-10.7,3.8-17.7,6.3c-7.5,2.7-16,5.7-26.5,9.4
		C81.4,316.9,67,331.3,61,351.7c-9.6,32.5,5.1,72,23.9,96.6c23.9,31.3,75.9,54.1,105.1,61.8c45.1,11.8,114.7,15.2,190.8-36.1
		c8.7-5.9,17.2-12.3,25.2-18.9C257,432.5,176.5,335.5,147.9,293z"/>
</g>
<path d="M394,468.5c-91.8-17.1-158.5-62.7-198.3-97.8c-43.1-38.1-64.8-72.7-65-73.1l3.4-2.1c0.2,0.3,21.7,34.5,64.4,72.3
	c39.4,34.8,105.4,79.9,196.3,96.8L394,468.5z"/>
<g>
	<path class="st10" d="M144.7,313.8c0,0-18.6,28.9-21.9,53.6s24.8,37.4,40.2,24.5c15.4-12.9,34-7,31.5,4.5
		c-2.5,11.5-16.1,23.8-29.2,23.7c-13.1-0.1-37.3,34.3,22.8,38.4c60.2,4.1,44.4-18.8,45.2-30.9c0.8-12,21.3,3.3,25.8,18.6
		c4.5,15.3,25.8-17,25.8-17S206.5,391.6,144.7,313.8z"/>
	<path d="M201.4,461c-4.1,0-8.5-0.2-13.3-0.5c-36.1-2.5-41-15.5-40.7-23.1c0.4-10,10.4-19.3,18-19.3c0.1,0,0.2,0,0.3,0
		c12.4,0,24.9-12,27-22.1c0.9-4.2-1.8-6.5-3.5-7.5c-5.5-3.3-15.7-2.7-24.8,4.9c-8,6.7-19.6,7.5-29.5,2c-10.4-5.7-15.6-16.3-14-28.3
		c3.3-24.9,21.4-53.3,22.2-54.5l1.5-2.3l1.7,2.2c60.8,76.5,138.8,114.5,139.5,114.9l2.1,1l-1.3,1.9c-2.6,3.9-15.8,23.2-24.2,22
		c-1.7-0.3-4-1.4-5.2-5.5c-3.3-11.1-15.6-22-20.4-21.4c-0.4,0-1.3,0.1-1.5,2.4c-0.1,1.9,0.2,4.1,0.6,6.6c0.9,5.8,1.9,13-3.1,18.5
		C227.8,458.4,217.7,461,201.4,461z M165.3,422.2c-5.1,0-13.7,7.2-14,15.4c-0.4,10.4,13.1,17.3,37,19c22.3,1.5,36.2-0.6,41.5-6.4
		c3.8-4.1,2.9-9.8,2.1-15.2c-0.4-2.6-0.8-5.1-0.6-7.4c0.3-5.1,3.6-6,5-6.1c7.8-0.9,21.2,12.3,24.7,24.3c0.5,1.6,1.1,2.5,1.9,2.6
		c2.5,0.4,9.9-5.1,19-18.3c-12.7-6.5-81.6-43.9-137.1-112.7c-4.4,7.4-17.5,30.5-20.1,50.4c-1.4,10.3,3.1,19.4,12,24.3
		c8.5,4.7,18.3,4.1,25-1.6c11-9.2,23-9.2,29.5-5.3c4.3,2.6,6.3,7,5.3,11.8c-2.5,11.7-16.5,25.3-31,25.3
		C165.5,422.2,165.4,422.2,165.3,422.2z"/>
</g>
<g>
	<g>
		<g>
			<g>
				<g>
					<path class="st1" d="M481,483.7l-2.5-23.2c-0.4-3.4-3.2-5.8-6.3-5.3l-8.8,1.2c-3.1,0.4-5.4,3.6-5,6.9l2.5,23.2
						c0.4,3.4,3.2,5.8,6.3,5.3l8.8-1.2C479.1,490.2,481.4,487,481,483.7z M477.4,482.8c0.2,1.7-0.9,3.2-2.5,3.5l-7.5,1.1
						c-1.6,0.2-3-1-3.2-2.7l-2.2-20.5c-0.2-1.7,0.9-3.2,2.5-3.5l7.5-1.1c1.6-0.2,3,1,3.2,2.7L477.4,482.8z"/>
					<path d="M473,455.1c2.8,0,5.2,2.3,5.6,5.4l2.5,23.2c0.4,3.4-1.9,6.5-5,6.9l-8.8,1.2c-0.2,0-0.5,0.1-0.7,0.1
						c-2.8,0-5.2-2.3-5.6-5.4l-2.5-23.2c-0.4-3.4,1.9-6.5,5-6.9l8.8-1.2C472.5,455.1,472.8,455.1,473,455.1 M467.1,487.3
						c0.1,0,0.2,0,0.4,0l7.5-1.1c1.6-0.2,2.7-1.8,2.5-3.5l-2.2-20.5c-0.2-1.6-1.4-2.7-2.8-2.7c-0.1,0-0.2,0-0.4,0l-7.5,1.1
						c-1.6,0.2-2.7,1.8-2.5,3.5l2.2,20.5C464.4,486.2,465.7,487.3,467.1,487.3 M473,451.1c-0.4,0-0.9,0-1.3,0.1l-8.8,1.2
						c-5.2,0.7-9,5.8-8.4,11.3l2.5,23.2c0.5,5.1,4.6,9,9.5,9c0.4,0,0.9,0,1.3-0.1l8.8-1.2c5.2-0.7,9-5.8,8.4-11.3l-2.5-23.2
						C482,455,477.9,451.1,473,451.1L473,451.1z M466.2,464.5l5.2-0.7l2,18.7l-5.2,0.7L466.2,464.5L466.2,464.5z"/>
				</g>
			</g>
		</g>
		<g>
			<g>
				<path class="st1" d="M470.4,466.1l-2.8,0.4c-0.6,0.1-1.2-1.7-1.5-3.9l-2.9-27.3c-0.2-2.2,0-4.1,0.6-4.2l2.8-0.4
					c0.6-0.1,1.2,1.7,1.5,3.9l2.9,27.3C471.2,464.1,471,466,470.4,466.1z"/>
				<path d="M466.7,430.7c0.6,0,1.2,1.7,1.4,3.9l2.9,27.3c0.2,2.2,0,4.1-0.6,4.2l-2.8,0.4c0,0,0,0,0,0c-0.6,0-1.2-1.7-1.4-3.9
					l-2.9-27.3c-0.2-2.2,0-4.1,0.6-4.2L466.7,430.7C466.7,430.7,466.7,430.7,466.7,430.7 M466.7,426.7h-0.3l-0.3,0l-2.8,0.4
					c-4.2,0.6-4.3,5.7-4,8.6l2.9,27.3c0.7,6.2,3.3,7.5,5.4,7.5h0.3l0.3,0l2.8-0.4c4.2-0.6,4.3-5.6,4-8.6l-2.9-27.3
					C471.4,428,468.8,426.7,466.7,426.7L466.7,426.7z"/>
			</g>
		</g>
	</g>
	<g>
		<g>
			<g>
				<g>
					<path class="st1" d="M432.7,518.4l19.7-12.4c2.9-1.8,3.8-5.4,2-8l-5-7.3c-1.8-2.6-5.6-3.3-8.4-1.5l-19.7,12.4
						c-2.9,1.8-3.8,5.4-2,8l5,7.3C426.1,519.6,429.9,520.2,432.7,518.4z M431.9,514.8c-1.4,0.9-3.3,0.6-4.2-0.7l-4.2-6.2
						c-0.9-1.3-0.4-3.1,1-4l17.5-11c1.4-0.9,3.3-0.6,4.2,0.7l4.2,6.2c0.9,1.3,0.4,3.1-1,4L431.9,514.8z"/>
					<path d="M444.6,488.2c1.9,0,3.8,0.9,4.9,2.5l5,7.3c1.8,2.6,0.9,6.2-2,8l-19.7,12.4c-1.1,0.7-2.3,1-3.5,1
						c-1.9,0-3.8-0.9-4.9-2.5l-5-7.3c-1.8-2.6-0.9-6.2,2-8l19.7-12.4C442.2,488.6,443.4,488.2,444.6,488.2 M430.2,515.3
						c0.6,0,1.2-0.2,1.8-0.5l17.5-11c1.4-0.9,1.9-2.7,1-4l-4.2-6.2c-0.5-0.8-1.5-1.2-2.4-1.2c-0.6,0-1.2,0.2-1.8,0.5l-17.5,11
						c-1.4,0.9-1.9,2.7-1,4l4.2,6.2C428.3,514.9,429.2,515.3,430.2,515.3 M444.6,484.2c-2,0-4,0.6-5.7,1.6l-19.7,12.4
						c-2.4,1.5-4,3.8-4.6,6.5c-0.5,2.5,0,5.1,1.4,7.2l5,7.3c1.8,2.6,4.9,4.2,8.2,4.2c2,0,4-0.6,5.7-1.6l19.7-12.4
						c2.4-1.5,4-3.8,4.6-6.5c0.5-2.5,0-5.1-1.4-7.2l-5-7.3C451,485.8,448,484.2,444.6,484.2L444.6,484.2z M427.5,506.7l15.9-10
						l3,4.4l-15.9,10L427.5,506.7L427.5,506.7z"/>
				</g>
			</g>
		</g>
		<g>
			<g>
				<path class="st1" d="M443.8,501.2l-1.6-2.3c-0.3-0.5,1-1.9,2.9-3.1l23.2-14.6c1.9-1.2,3.7-1.8,4.1-1.3l1.6,2.3
					c0.3,0.5-1,1.9-2.9,3.1l-23.2,14.6C446,501.1,444.1,501.6,443.8,501.2z"/>
				<path d="M472,479.7c0.2,0,0.4,0.1,0.5,0.2l1.6,2.3c0.3,0.5-1,1.9-2.9,3.1l-23.2,14.6c-1.5,0.9-2.9,1.5-3.6,1.5
					c-0.2,0-0.4-0.1-0.5-0.2l-1.6-2.3c-0.3-0.5,1-1.9,2.9-3.1l23.2-14.6C469.8,480.3,471.2,479.7,472,479.7 M472,475.7
					c-2.1,0-4.5,1.3-5.7,2.1L443,492.4c-2.7,1.7-4.3,3.5-4.7,5.3c-0.2,1.2,0,2.4,0.6,3.4l1.6,2.3c0.8,1.2,2.2,1.9,3.8,1.9
					c2.1,0,4.5-1.3,5.7-2.1l23.2-14.6c2.7-1.7,4.3-3.5,4.7-5.3c0.2-1.2,0-2.4-0.6-3.4l-1.6-2.3C474.9,476.4,473.5,475.7,472,475.7
					L472,475.7z"/>
			</g>
		</g>
	</g>
	<g>
		<g>
			<g>
				<g>
					<path class="st1" d="M374.4,517.6l23.3,0.8c3.4,0.1,6.2-2.3,6.2-5.5l0-8.8c0-3.1-2.8-5.8-6.1-5.9l-23.3-0.8
						c-3.4-0.1-6.2,2.3-6.2,5.5l0,8.8C368.2,514.8,371,517.5,374.4,517.6z M375.7,514.1c-1.7-0.1-3.1-1.4-3.1-3l0-7.5
						c0-1.6,1.4-2.8,3.1-2.7l20.6,0.7c1.7,0.1,3.1,1.4,3.1,3l0,7.5c0,1.6-1.4,2.8-3.1,2.7L375.7,514.1z"/>
					<path d="M374.1,497.3c0.1,0,0.2,0,0.2,0l23.3,0.8c3.4,0.1,6.2,2.8,6.1,5.9l0,8.8c0,3.1-2.6,5.5-5.9,5.5c-0.1,0-0.2,0-0.2,0
						l-23.3-0.8c-3.4-0.1-6.2-2.8-6.1-5.9l0-8.8C368.2,499.7,370.9,497.3,374.1,497.3 M396.5,514.9c1.6,0,3-1.2,3-2.7l0-7.5
						c0-1.6-1.4-2.9-3.1-3l-20.6-0.7c0,0-0.1,0-0.1,0c-1.6,0-3,1.2-3,2.7l0,7.5c0,1.6,1.4,2.9,3.1,3l20.6,0.7
						C396.4,514.9,396.4,514.9,396.5,514.9 M374.1,493.3c-5.5,0-9.9,4.3-9.9,9.5l0,8.8c0,5.3,4.5,9.7,10,9.9l23.3,0.8
						c0.1,0,0.3,0,0.4,0c5.5,0,9.9-4.3,9.9-9.5l0-8.8c0-5.3-4.5-9.7-10-9.9l-23.3-0.8C374.4,493.3,374.3,493.3,374.1,493.3
						L374.1,493.3z M376.7,510.2l0-5.3l18.8,0.7l0,5.3L376.7,510.2L376.7,510.2z"/>
				</g>
			</g>
		</g>
		<g>
			<g>
				<path class="st1" d="M393.3,509.5l0-2.8c0-0.6,1.8-1,4.1-0.9l27.4,1c2.3,0.1,4.1,0.6,4.1,1.2l0,2.8c0,0.6-1.8,1-4.1,0.9l-27.4-1
					C395.1,510.7,393.3,510.1,393.3,509.5z"/>
				<path d="M396.8,505.8c0.2,0,0.4,0,0.6,0l27.4,1c2.3,0.1,4.1,0.6,4.1,1.2l0,2.8c0,0.5-1.5,0.9-3.5,0.9c-0.2,0-0.4,0-0.6,0
					l-27.4-1c-2.3-0.1-4.1-0.6-4.1-1.2l0-2.8C393.3,506.2,394.8,505.8,396.8,505.8 M396.8,501.8L396.8,501.8c-6.8,0-7.5,3.4-7.5,4.9
					l0,2.8c0,4.3,5,5.1,8,5.2l27.4,1c0.2,0,0.5,0,0.7,0c6.8,0,7.5-3.4,7.5-4.9l0-2.8c0-4.3-5-5.1-8-5.2l-27.4-1
					C397.3,501.8,397,501.8,396.8,501.8L396.8,501.8z"/>
			</g>
		</g>
	</g>
	<g>
		<g>
			<g>
				<g>
					<path class="st1" d="M324.5,486.1l19.7,12.5c2.9,1.8,6.5,1.1,8.1-1.6l4.5-7.6c1.6-2.7,0.6-6.4-2.3-8.2l-19.7-12.5
						c-2.9-1.8-6.5-1.1-8.1,1.6l-4.5,7.6C320.6,480.5,321.6,484.2,324.5,486.1z M327.4,483.8c-1.4-0.9-1.9-2.8-1.1-4.1l3.8-6.5
						c0.8-1.4,2.6-1.7,4-0.8l17.4,11.1c1.4,0.9,1.9,2.8,1.1,4.1l-3.8,6.5c-0.8,1.4-2.6,1.7-4,0.8L327.4,483.8z"/>
					<path d="M331.4,467.6c1.1,0,2.3,0.3,3.4,1l19.7,12.5c2.9,1.8,3.9,5.5,2.3,8.2l-4.5,7.6c-1,1.7-2.8,2.6-4.7,2.6
						c-1.1,0-2.3-0.3-3.4-1l-19.7-12.5c-2.9-1.8-3.9-5.5-2.3-8.2l4.5-7.6C327.7,468.5,329.5,467.6,331.4,467.6 M346.5,495.4
						c1,0,1.9-0.5,2.4-1.3l3.8-6.5c0.8-1.4,0.3-3.2-1.1-4.1l-17.4-11.1c-0.5-0.3-1.1-0.5-1.7-0.5c-1,0-1.9,0.5-2.4,1.3l-3.8,6.5
						c-0.8,1.4-0.3,3.2,1.1,4.1l17.4,11.1C345.4,495.2,346,495.4,346.5,495.4 M331.4,463.6c-3.4,0-6.5,1.7-8.2,4.6l-4.5,7.6
						c-2.7,4.6-1.1,10.7,3.6,13.6L342,502c1.7,1.1,3.6,1.6,5.5,1.6c3.4,0,6.5-1.7,8.2-4.6l4.5-7.6c2.7-4.6,1.1-10.7-3.6-13.6
						l-19.7-12.5C335.3,464.1,333.3,463.6,331.4,463.6L331.4,463.6z M330.2,480.8l2.7-4.5l15.8,10.1l-2.7,4.5L330.2,480.8
						L330.2,480.8z"/>
				</g>
			</g>
		</g>
		<g>
			<g>
				<path class="st1" d="M344.9,488.7l1.4-2.4c0.3-0.5,2.1,0.1,4,1.3l23.2,14.7c1.9,1.2,3.2,2.6,2.9,3.1l-1.4,2.4
					c-0.3,0.5-2.1-0.1-4-1.3l-23.2-14.7C345.9,490.6,344.6,489.2,344.9,488.7z"/>
				<path d="M346.7,486.1c0.7,0,2.1,0.6,3.5,1.5l23.2,14.7c1.9,1.2,3.2,2.6,2.9,3.1l-1.4,2.4c-0.1,0.1-0.2,0.2-0.5,0.2
					c-0.7,0-2.1-0.6-3.5-1.5l-23.2-14.7c-1.9-1.2-3.2-2.6-2.9-3.1l1.4-2.4C346.3,486.2,346.5,486.1,346.7,486.1 M346.7,482.1
					c-1.7,0-3.1,0.8-3.9,2.1l-1.4,2.4c-2.2,3.7,1.7,6.9,4.2,8.5l23.2,14.7c1.5,1,3.7,2.1,5.7,2.1c1.7,0,3.1-0.8,3.9-2.1l1.4-2.4
					c2.2-3.7-1.7-6.9-4.2-8.5l-23.2-14.7C350.9,483.3,348.7,482.1,346.7,482.1L346.7,482.1z"/>
			</g>
		</g>
	</g>
	<g>
		<g>
			<g>
				<g>
					<path class="st1" d="M283.1,456.5l18.4,14.3c2.7,2.1,6.4,1.7,8.2-0.9l5.2-7.2c1.8-2.6,1.2-6.3-1.5-8.4L295,440
						c-2.7-2.1-6.4-1.7-8.2,0.9l-5.2,7.2C279.8,450.6,280.4,454.4,283.1,456.5z M286.3,454.5c-1.3-1-1.7-2.9-0.8-4.2l4.4-6.1
						c0.9-1.3,2.8-1.5,4.1-0.4l16.3,12.6c1.3,1,1.7,2.9,0.8,4.2l-4.4,6.1c-0.9,1.3-2.8,1.5-4.1,0.4L286.3,454.5z"/>
					<path d="M291.2,438.7c1.3,0,2.7,0.4,3.8,1.3l18.4,14.3c2.7,2.1,3.4,5.9,1.5,8.4l-5.2,7.2c-1,1.4-2.7,2.2-4.4,2.2
						c-1.3,0-2.7-0.4-3.8-1.3l-18.4-14.3c-2.7-2.1-3.4-5.9-1.5-8.4l5.2-7.2C287.8,439.4,289.4,438.7,291.2,438.7 M304.5,467.8
						c0.9,0,1.7-0.4,2.2-1.1l4.4-6.1c0.9-1.3,0.6-3.2-0.8-4.2L294,443.7c-0.6-0.4-1.3-0.7-1.9-0.7c-0.9,0-1.7,0.4-2.2,1.1l-4.4,6.1
						c-0.9,1.3-0.6,3.2,0.8,4.2l16.3,12.6C303.1,467.5,303.8,467.8,304.5,467.8 M291.2,434.7c-3.1,0-5.9,1.4-7.6,3.9l-5.2,7.2
						c-3.1,4.3-2,10.5,2.3,13.9l18.4,14.3c1.8,1.4,4,2.2,6.3,2.2c3.1,0,5.9-1.4,7.6-3.9l5.2-7.2c3.1-4.3,2-10.5-2.3-13.9l-18.4-14.3
						C295.6,435.4,293.4,434.7,291.2,434.7L291.2,434.7z M289.3,451.8l3.1-4.3l14.8,11.5l-3.1,4.3L289.3,451.8L289.3,451.8z"/>
				</g>
			</g>
		</g>
		<g>
			<g>
				<path class="st1" d="M303.2,461l1.6-2.3c0.3-0.5,2.1,0.3,3.9,1.7l21.7,16.8c1.8,1.4,3,2.9,2.6,3.4l-1.6,2.3
					c-0.3,0.5-2.1-0.3-3.9-1.7l-21.7-16.8C304,462.9,302.8,461.4,303.2,461z"/>
				<path d="M305.2,458.6c0.7,0,2.1,0.7,3.5,1.8l21.7,16.8c1.8,1.4,3,2.9,2.6,3.4l-1.6,2.3c-0.1,0.1-0.2,0.1-0.4,0.1
					c-0.7,0-2.1-0.7-3.5-1.8l-21.7-16.8c-1.8-1.4-3-2.9-2.6-3.4l1.6-2.3C304.9,458.6,305,458.6,305.2,458.6 M305.2,454.6
					L305.2,454.6c-1.5,0-2.8,0.7-3.6,1.8l-1.6,2.3c-2.5,3.5,1.1,7,3.4,8.9l21.7,16.8c1.6,1.2,3.8,2.6,5.9,2.6c1.5,0,2.8-0.7,3.6-1.8
					l1.6-2.3c2.5-3.5-1.1-7-3.4-8.9l-21.7-16.8C309.5,456,307.3,454.6,305.2,454.6L305.2,454.6z"/>
			</g>
		</g>
	</g>
	<g>
		<g>
			<g>
				<g>
					<path class="st1" d="M249.5,418.7l15.8,17.2c2.3,2.5,6,2.7,8.2,0.5l6.3-6.2c2.2-2.2,2.2-6.1-0.1-8.5l-15.8-17.2
						c-2.3-2.5-6-2.7-8.2-0.5l-6.3,6.2C247.2,412.4,247.2,416.2,249.5,418.7z M252.9,417.3c-1.1-1.2-1.2-3.2,0-4.3l5.4-5.3
						c1.1-1.1,3-1,4.1,0.3l13.9,15.2c1.1,1.2,1.2,3.2,0,4.3l-5.4,5.3c-1.1,1.1-3,1-4.1-0.3L252.9,417.3z"/>
					<path d="M259.4,402.4c1.6,0,3.3,0.7,4.5,2l15.8,17.2c2.3,2.5,2.3,6.3,0.1,8.5l-6.3,6.2c-1,1-2.4,1.5-3.7,1.5
						c-1.6,0-3.3-0.7-4.5-2l-15.8-17.2c-2.3-2.5-2.3-6.3-0.1-8.5l6.3-6.2C256.7,402.9,258.1,402.4,259.4,402.4 M269.1,433.5
						c0.7,0,1.4-0.2,1.9-0.8l5.4-5.3c1.1-1.1,1.1-3,0-4.3L262.4,408c-0.6-0.7-1.4-1-2.3-1c-0.7,0-1.4,0.2-1.9,0.8l-5.4,5.3
						c-1.1,1.1-1.1,3,0,4.3l13.9,15.2C267.5,433.1,268.3,433.5,269.1,433.5 M259.4,398.4c-2.5,0-4.8,0.9-6.5,2.7l-6.3,6.2
						c-3.8,3.7-3.8,10-0.1,14.1l15.8,17.2c1.9,2.1,4.7,3.3,7.5,3.3c2.5,0,4.8-0.9,6.5-2.7l6.3-6.2c3.8-3.7,3.8-10,0.1-14.1
						l-15.8-17.2C265,399.7,262.2,398.4,259.4,398.4L259.4,398.4z M256.4,415.1l3.8-3.7l12.7,13.8l-3.8,3.7L256.4,415.1L256.4,415.1
						z"/>
				</g>
			</g>
		</g>
		<g>
			<g>
				<path class="st1" d="M268.5,426.5l2-2c0.4-0.4,2,0.6,3.5,2.3l18.5,20.2c1.5,1.7,2.4,3.4,2,3.8l-2,2c-0.4,0.4-2-0.6-3.5-2.3
					l-18.5-20.2C269,428.6,268.1,426.9,268.5,426.5z"/>
				<path d="M270.7,424.5c0.6,0,2,1,3.3,2.4l18.5,20.2c1.5,1.7,2.4,3.4,2,3.8l-2,2c-0.1,0.1-0.1,0.1-0.3,0.1c-0.6,0-2-1-3.3-2.4
					l-18.5-20.2c-1.5-1.7-2.4-3.4-2-3.8l2-2C270.5,424.5,270.6,424.5,270.7,424.5 M270.7,420.5L270.7,420.5c-1.2,0-2.2,0.4-3.1,1.2
					l-2,2c-3.1,3-0.1,7.1,1.9,9.3l18.5,20.2c2.2,2.4,4.3,3.7,6.2,3.7c1.2,0,2.2-0.4,3.1-1.2l2-2c3.1-3,0.1-7.1-1.9-9.3l-18.5-20.2
					C274.7,421.7,272.6,420.5,270.7,420.5L270.7,420.5z"/>
			</g>
		</g>
	</g>
	<g>
		<g>
			<g>
				<g>
					<path class="st1" d="M218.6,374.7l13.4,19.1c1.9,2.8,5.6,3.5,8.1,1.6l7.1-5.3c2.5-1.9,3-5.7,1-8.5l-13.4-19.1
						c-1.9-2.8-5.6-3.5-8.1-1.6l-7.1,5.3C217.1,368.1,216.7,372,218.6,374.7z M222.2,373.8c-1-1.4-0.7-3.3,0.5-4.2l6-4.5
						c1.3-0.9,3.1-0.6,4,0.8l11.8,16.9c1,1.4,0.7,3.3-0.5,4.2l-6,4.5c-1.3,0.9-3.1,0.6-4-0.8L222.2,373.8z"/>
					<path d="M229.9,359.9c1.8,0,3.7,0.9,4.9,2.7l13.4,19.1c1.9,2.8,1.5,6.6-1,8.5l-7.1,5.3c-0.9,0.7-2.1,1.1-3.2,1.1
						c-1.8,0-3.7-0.9-4.9-2.7l-13.4-19.1c-1.9-2.8-1.5-6.6,1-8.5l7.1-5.3C227.7,360.2,228.8,359.9,229.9,359.9 M236.5,392
						c0.6,0,1.1-0.2,1.6-0.5l6-4.5c1.3-0.9,1.5-2.9,0.5-4.2l-11.8-16.9c-0.6-0.9-1.5-1.3-2.5-1.3c-0.6,0-1.1,0.2-1.6,0.5l-6,4.5
						c-1.3,0.9-1.5,2.9-0.5,4.2l11.8,16.9C234.6,391.5,235.6,392,236.5,392 M229.9,355.9c-2,0-4,0.6-5.6,1.9l-7.1,5.3
						c-4.2,3.2-5.1,9.4-1.9,14l13.4,19.1c1.9,2.7,5,4.4,8.2,4.4c2,0,4-0.6,5.6-1.9l7.1-5.3c4.2-3.2,5.1-9.4,1.9-14l-13.4-19.1
						C236.2,357.5,233.1,355.9,229.9,355.9L229.9,355.9z M225.9,372.1l4.2-3.2l10.8,15.4l-4.2,3.2L225.9,372.1L225.9,372.1z"/>
				</g>
			</g>
		</g>
		<g>
			<g>
				<path class="st1" d="M236.4,385l2.2-1.7c0.5-0.3,1.9,0.9,3.2,2.7l15.7,22.5c1.3,1.8,2,3.6,1.5,4l-2.2,1.7
					c-0.5,0.3-1.9-0.9-3.2-2.7L237.9,389C236.6,387.1,236,385.3,236.4,385z"/>
				<path d="M238.8,383.2c0.6,0,1.9,1.1,3,2.8l15.7,22.5c1.3,1.8,2,3.6,1.5,4l-2.2,1.7c-0.1,0-0.1,0.1-0.2,0.1c-0.6,0-1.9-1.1-3-2.8
					L237.9,389c-1.3-1.8-2-3.6-1.5-4l2.2-1.7C238.7,383.3,238.8,383.2,238.8,383.2 M238.8,379.2c-1,0-1.9,0.3-2.6,0.9l-2.2,1.7
					c-3.4,2.6-1.1,7,0.6,9.5l15.7,22.5c3.1,4.5,5.5,4.5,6.3,4.5c1,0,1.9-0.3,2.6-0.9l2.2-1.7c3.4-2.6,1.1-7-0.6-9.5l-15.7-22.5
					C242,379.2,239.6,379.2,238.8,379.2L238.8,379.2z"/>
			</g>
		</g>
	</g>
	<g>
		<g>
			<g>
				<g>
					<path class="st1" d="M195.3,326.8l10.3,20.9c1.5,3,5,4.3,7.8,2.8l7.8-4.2c2.8-1.5,3.8-5.2,2.3-8.2l-10.3-20.9
						c-1.5-3-5-4.3-7.8-2.8l-7.8,4.2C194.9,320.1,193.8,323.8,195.3,326.8z M199,326.4c-0.7-1.5-0.2-3.4,1.2-4.1l6.7-3.6
						c1.4-0.7,3.1-0.1,3.9,1.4l9.1,18.5c0.7,1.5,0.2,3.4-1.2,4.1l-6.7,3.6c-1.4,0.7-3.1,0.1-3.9-1.4L199,326.4z"/>
					<path d="M207.9,313.8c2.1,0,4.2,1.3,5.3,3.5l10.3,20.9c1.5,3,0.4,6.7-2.3,8.2l-7.8,4.2c-0.8,0.4-1.6,0.6-2.5,0.6
						c-2.1,0-4.2-1.3-5.3-3.5l-10.3-20.9c-1.5-3-0.4-6.7,2.3-8.2l7.8-4.2C206.2,314,207.1,313.8,207.9,313.8 M210.7,346.7
						c0.4,0,0.8-0.1,1.2-0.3l6.7-3.6c1.4-0.7,1.9-2.6,1.2-4.1l-9.1-18.5c-0.5-1.1-1.6-1.7-2.6-1.7c-0.4,0-0.8,0.1-1.2,0.3l-6.7,3.6
						c-1.4,0.7-1.9,2.6-1.2,4.1l9.1,18.5C208.6,346,209.7,346.7,210.7,346.7 M207.9,309.8c-1.5,0-3,0.4-4.4,1.1l-7.8,4.2
						c-4.7,2.5-6.5,8.6-4,13.5l10.3,20.9c1.7,3.5,5.2,5.7,8.9,5.7c1.5,0,3-0.4,4.4-1.1l7.8-4.2c4.7-2.5,6.5-8.6,4-13.5l-10.3-20.9
						C215.1,312.1,211.6,309.8,207.9,309.8L207.9,309.8z M202.9,325.4l4.6-2.5l8.3,16.9l-4.6,2.5L202.9,325.4L202.9,325.4z"/>
				</g>
			</g>
		</g>
		<g>
			<g>
				<path class="st1" d="M211.3,339.7l2.5-1.3c0.5-0.3,1.7,1.2,2.7,3.2l12.1,24.6c1,2,1.4,3.9,0.9,4.2l-2.5,1.3
					c-0.5,0.3-1.7-1.2-2.7-3.2l-12.1-24.6C211.2,341.8,210.8,340,211.3,339.7z"/>
				<path d="M213.9,338.3c0.6,0,1.7,1.4,2.6,3.2l12.1,24.6c1,2,1.4,3.9,0.9,4.2l-2.5,1.3c0,0-0.1,0-0.1,0c-0.6,0-1.7-1.4-2.6-3.2
					l-12.1-24.6c-1-2-1.4-3.9-0.9-4.2l2.5-1.3C213.8,338.4,213.9,338.3,213.9,338.3 M213.9,334.3c-0.7,0-1.4,0.2-2,0.5l-2.5,1.3
					c-3.8,2-2.1,6.8-0.8,9.5l12.1,24.6c0.7,1.3,2.7,5.5,6.2,5.5c0.7,0,1.4-0.2,2-0.5l2.5-1.3c3.8-2,2.1-6.8,0.8-9.5l-12.1-24.6
					C219.5,338.4,217.4,334.3,213.9,334.3L213.9,334.3z"/>
			</g>
		</g>
	</g>
	<g>
		<g>
			<g>
				<g>
					<path class="st1" d="M171.4,279.8l10.3,20.9c1.5,3,5,4.3,7.8,2.8l7.8-4.2c2.8-1.5,3.8-5.2,2.3-8.2l-10.3-20.9
						c-1.5-3-5-4.3-7.8-2.8l-7.8,4.2C170.9,273.1,169.9,276.8,171.4,279.8z M175.1,279.4c-0.7-1.5-0.2-3.4,1.2-4.1l6.7-3.6
						c1.4-0.7,3.1-0.1,3.9,1.4l9.1,18.5c0.7,1.5,0.2,3.4-1.2,4.1l-6.7,3.6c-1.4,0.7-3.1,0.1-3.9-1.4L175.1,279.4z"/>
					<path d="M184,266.8c2.1,0,4.2,1.3,5.3,3.5l10.3,20.9c1.5,3,0.4,6.7-2.3,8.2l-7.8,4.2c-0.8,0.4-1.6,0.6-2.5,0.6
						c-2.1,0-4.2-1.3-5.3-3.5l-10.3-20.9c-1.5-3-0.4-6.7,2.3-8.2l7.8-4.2C182.3,267,183.1,266.8,184,266.8 M186.8,299.7
						c0.4,0,0.8-0.1,1.2-0.3l6.7-3.6c1.4-0.7,1.9-2.6,1.2-4.1l-9.1-18.5c-0.5-1.1-1.6-1.7-2.6-1.7c-0.4,0-0.8,0.1-1.2,0.3l-6.7,3.6
						c-1.4,0.7-1.9,2.6-1.2,4.1l9.1,18.5C184.7,299,185.7,299.7,186.8,299.7 M184,262.8c-1.5,0-3,0.4-4.4,1.1l-7.8,4.2
						c-4.7,2.5-6.5,8.6-4,13.5l10.3,20.9c1.7,3.5,5.2,5.7,8.9,5.7c1.5,0,3-0.4,4.4-1.1l7.8-4.2c4.7-2.5,6.5-8.6,4-13.5l-10.3-20.9
						C191.1,265,187.7,262.8,184,262.8L184,262.8z M179,278.3l4.6-2.5l8.3,16.9l-4.6,2.5L179,278.3L179,278.3z"/>
				</g>
			</g>
		</g>
		<g>
			<g>
				<path class="st1" d="M187.4,292.7l2.5-1.3c0.5-0.3,1.7,1.2,2.7,3.2l12.1,24.6c1,2,1.4,3.9,0.9,4.2l-2.5,1.3
					c-0.5,0.3-1.7-1.2-2.7-3.2l-12.1-24.6C187.3,294.8,186.9,292.9,187.4,292.7z"/>
				<path d="M190,291.3c0.6,0,1.7,1.4,2.6,3.2l12.1,24.6c1,2,1.4,3.9,0.9,4.2l-2.5,1.3c0,0-0.1,0-0.1,0c-0.6,0-1.7-1.4-2.6-3.2
					l-12.1-24.6c-1-2-1.4-3.9-0.9-4.2l2.5-1.3C189.9,291.3,189.9,291.3,190,291.3 M190,287.3c-0.7,0-1.4,0.2-2,0.5l-2.5,1.3
					c-3.8,2-2.1,6.8-0.8,9.5l12.1,24.6c0.7,1.3,2.7,5.5,6.2,5.5c0.7,0,1.4-0.2,2-0.5l2.5-1.3c3.8-2,2.1-6.8,0.8-9.5l-12.1-24.6
					C195.5,291.4,193.5,287.3,190,287.3L190,287.3z"/>
			</g>
		</g>
	</g>
	<g>
		<path class="st1" d="M503.7,519.1c-5.6-3.2-13.4-3.3-23.3-0.2l-5.3-7.9c5.5-1.8,10.7-3,10.8-3.1l0.4-0.1l-1.1-16.8l-0.6,0
			c-7.9,0.2-14.8,1.5-20.5,3.6l-5.5-8.2l-11.1,7.5l5.1,7.5c-0.7,0.6-1.4,1.3-2,2c-2.6,2.8-4.6,6.1-6,9.8c-2.3,6.1-0.6,16.5,6.1,23.2
			c2.8,2.7,6.7,4.1,10.8,4.5c6.4,0.7,13.2-0.8,16.2-2.3l6.4,9.4c-4.9,1.2-15.7,2.7-15.8,2.7l-0.3,0l-0.1,0.3
			c-0.1,0.2-1.9,4.6-1.8,14l0,0.3l0.3,0.2c4.7,3.5,18.1,2.5,28.2-2l3.1,4.6l11.1-7.5l-3-4.5c5.6-4.8,9.1-9.7,10.5-14.7
			C518,534.1,510,522.7,503.7,519.1z M490.3,533.6c4.4-0.5,6,1.6,7.6,4.5c0.7,1.3-0.5,2.9-1.8,4L490.3,533.6z M467.5,523.7
			c-1.9,0.4-3.6,0.1-4.6-1c-1-1.1-1.2-2.7-0.4-4.7l0,0c0.1-0.3,0.3-0.6,0.6-0.9L467.5,523.7z"/>
		<path d="M496.9,570.8l-3.3-4.9c-9.7,3.9-23,5.3-28.6,1.1l-1.1-0.8l0-1.3c0-9.6,1.8-14.3,2-14.8l0.5-1.3l1.4-0.2
			c0.1,0,7.5-1,12.7-2l-3.8-5.6c-3.8,1.4-9.9,2.4-15.6,1.8c-5.2-0.6-9.2-2.3-12-5.1c-7.3-7.3-9.1-18.6-6.5-25.3
			c1.5-3.9,3.6-7.4,6.4-10.4c0.3-0.3,0.6-0.6,0.9-0.9l-5.2-7.8l14.4-9.7l5.8,8.6c5.7-1.9,12.3-3,19.7-3.2l2.5-0.1l1.3,20.4l-2.1,0.5
			c-0.4,0.1-3.9,0.9-8.1,2.2l3,4.4c9.8-2.7,17.7-2.5,23.5,0.8l0,0c6.8,3.9,15.6,16.2,13.2,24.6c-1.4,5-4.7,9.8-9.8,14.5l3.2,4.7
			L496.9,570.8z M467.9,564.2c4.3,2.3,15.9,1.8,25.6-2.6l1.5-0.7l2.9,4.3l7.8-5.2l-2.9-4.3l1.4-1.2c5.2-4.5,8.6-9.1,9.9-13.7
			c1.7-6.2-5.8-16.9-11.3-20l0,0c-5.1-2.9-12.4-2.9-21.8-0.1l-1.4,0.4l-7.6-11.3l2.5-0.8c4-1.3,7.8-2.3,9.7-2.8l-0.8-13.2
			c-7.1,0.3-13.3,1.5-18.5,3.4l-1.5,0.6l-5.3-7.8l-7.8,5.2l4.9,7.3l-1.3,1.2c-0.7,0.6-1.3,1.2-1.9,1.9c-2.4,2.6-4.3,5.7-5.6,9.1
			c-2,5.4-0.4,15,5.6,21c2.1,2.1,5.5,3.5,9.6,3.9c6.3,0.7,12.6-0.8,15-2.1l1.6-0.8l9,13.3l-2.8,0.7c-4.1,1-12.3,2.2-15.1,2.6
			C468.9,554.1,468,557.9,467.9,564.2z M495.6,545.1l-8.8-13.1l3.3-0.4c5.6-0.7,7.8,2.3,9.5,5.5c0.6,1.1,1.2,3.5-2.3,6.5
			L495.6,545.1z M466,525.8c-1.8,0-3.5-0.6-4.6-1.8c-1.5-1.6-1.8-4.1-0.9-6.8c0.2-0.5,0.5-1,0.9-1.5l1.7-2l7.6,11.2l-2.8,0.7
			C467.3,525.8,466.7,525.8,466,525.8z"/>
	</g>
</g>
<g>
	<path class="st10" d="M203.8,515.3c0,0-10-17.9,0-25.6c10-7.7,27.3,4.1,44,5.7s30.5-5.5,37.2-12.4c6.7-6.9,25.1-4,18.1,10.6
		c-7,14.5,12.3,6.5,19.7,3.8s8.5,5.4,8.5,5.4S274.6,530.1,203.8,515.3z"/>
	<path d="M246.4,521.6c-13.5,0-28-1.2-43.1-4.4l-0.9-0.2l-0.4-0.8c-0.4-0.8-10.7-19.5,0.5-28.2c7.2-5.5,17.1-2.4,27.6,1
		c5.8,1.8,11.9,3.8,17.8,4.4c16.2,1.6,29.3-5.4,35.6-11.8c4.6-4.7,13.6-5.6,19-1.9c2.1,1.5,6.6,5.8,2.3,14.7c-1.4,3-1.5,4.6-1.1,5.1
		c1.8,2,12.8-2,16.4-3.3c0.7-0.3,1.3-0.5,1.9-0.7c2.7-1,5.1-0.9,7.1,0.4c3.3,2,4,6.2,4,6.6l0.2,1.4l-1.3,0.6
		C331.7,504.7,296,521.6,246.4,521.6z M205.1,513.5c62.6,12.8,114.5-7.9,123.8-11.9c-0.3-0.9-0.9-1.9-1.8-2.4
		c-0.9-0.5-2.1-0.5-3.7,0c-0.6,0.2-1.2,0.4-1.9,0.7c-9,3.3-17.3,5.9-20.7,2.2c-2.7-3-0.3-7.9,0.4-9.5c1.5-3.1,2.5-7.2-1-9.6
		c-3.8-2.6-10.6-2-13.9,1.4c-6.9,7.1-21.2,14.8-38.9,13c-6.3-0.6-12.5-2.6-18.6-4.5c-9.9-3.1-18.5-5.9-24-1.6
		C197.6,496.9,203.4,510.1,205.1,513.5z"/>
</g>
</svg>
