<svg width="80" height="80" viewBox="0 0 80 80" fill="none" xmlns="http://www.w3.org/2000/svg">
<path d="M63.2591 26.5538C64.8955 26.5537 66.4943 27.0451 67.8483 27.9642C69.2023 28.8834 70.249 30.1879 70.8529 31.7089L76.9761 47.1334V71.4875C76.9761 73.6543 76.1154 75.7323 74.5832 77.2644C73.0511 78.7965 70.9731 79.6573 68.8063 79.6573H11.618C9.45125 79.6573 7.37324 78.7965 5.84111 77.2644C4.30898 75.7323 3.44824 73.6543 3.44824 71.4875V47.4562L9.58782 31.7498C10.1862 30.2186 11.2327 28.9035 12.5904 27.9765C13.9481 27.0495 15.5539 26.5537 17.198 26.5538H63.2591ZM26.0621 49.0207H7.53312V71.4875C7.53325 72.488 7.90058 73.4537 8.56543 74.2014C9.23029 74.9491 10.1464 75.4267 11.1401 75.5438L11.618 75.5724H68.8063C69.8069 75.5723 70.7725 75.2049 71.5202 74.5401C72.2679 73.8752 72.7456 72.9591 72.8626 71.9654L72.8912 71.4875V49.0207H54.3622C53.8704 52.4228 52.1694 55.5338 49.5707 57.7839C46.972 60.034 43.6496 61.2724 40.2122 61.2724C36.7747 61.2724 33.4523 60.034 30.8536 57.7839C28.2549 55.5338 26.5539 52.4228 26.0621 49.0207ZM63.2591 30.6387H17.198C16.4611 30.6387 15.7379 30.838 15.105 31.2156C14.4722 31.5931 13.9533 32.1348 13.6033 32.7833L13.3908 33.2367L8.81577 44.9358H27.5164L27.5123 44.9848C27.8108 44.9197 28.1201 44.9221 28.4176 44.9918C28.7151 45.0616 28.9932 45.197 29.2317 45.3881C29.4701 45.5791 29.6628 45.8211 29.7958 46.0962C29.9287 46.3713 29.9985 46.6727 30 46.9782C30 49.6867 31.0759 52.2842 32.991 54.1993C34.9062 56.1145 37.5037 57.1904 40.2122 57.1904C42.9206 57.1904 45.5181 56.1145 47.4333 54.1993C49.3484 52.2842 50.4244 49.6867 50.4244 46.9782C50.4238 46.4524 50.6261 45.9467 50.989 45.5662C51.3519 45.1858 51.8476 44.96 52.3729 44.9358H71.7066L67.058 33.2163C66.7875 32.5341 66.3383 31.9374 65.7575 31.4889C65.1767 31.0403 64.4858 30.7565 63.7574 30.6673L63.2591 30.6387ZM42.1484 0.00209523C42.6264 0.00193589 43.0894 0.169458 43.4566 0.475489C43.8239 0.78152 44.0721 1.20667 44.1582 1.6769L44.1908 2.04454V18.1471C44.1918 18.6575 44.0016 19.1498 43.6577 19.5269C43.3139 19.9041 42.8413 20.1389 42.333 20.185C41.8246 20.2311 41.3175 20.0852 40.9114 19.7761C40.5052 19.467 40.2296 19.017 40.1386 18.5148L40.106 18.1471V2.04454C40.106 1.50285 40.3211 0.983344 40.7042 0.600312C41.0872 0.21728 41.6067 0.00209523 42.1484 0.00209523ZM17.0999 0.553554L17.345 0.831326L29.2361 16.9339C29.5343 17.3441 29.6692 17.8506 29.6146 18.3548C29.5599 18.859 29.3197 19.3249 28.9405 19.6617C28.5614 19.9985 28.0705 20.1823 27.5634 20.1772C27.0563 20.172 26.5692 19.9784 26.1969 19.634L25.9518 19.3603L14.0608 3.25774C13.7579 2.84786 13.6192 2.33957 13.672 1.83267C13.7247 1.32577 13.965 0.856902 14.3457 0.518131C14.7265 0.179359 15.2201 -0.00483481 15.7297 0.00171936C16.2393 0.00827353 16.728 0.205103 17.0999 0.553554ZM69.946 0.398328C70.3311 0.681712 70.6046 1.09122 70.7188 1.55551C70.833 2.01979 70.7807 2.50943 70.571 2.93912L70.379 3.25366L58.5247 19.3563C58.2227 19.7677 57.7776 20.0511 57.277 20.1508C56.7765 20.2505 56.2567 20.1591 55.8202 19.8947C55.3836 19.6303 55.0619 19.212 54.9183 18.7223C54.7747 18.2325 54.8197 17.7067 55.0444 17.2485L55.2323 16.9339L67.0907 0.835411C67.2495 0.618641 67.4495 0.435339 67.6793 0.296007C67.909 0.156676 68.1641 0.0640543 68.4297 0.0234509C68.6953 -0.0171525 68.9663 -0.00493977 69.2272 0.0593887C69.4882 0.123717 69.7338 0.238897 69.9501 0.398328H69.946Z" fill="#AE694C"/>
</svg>
