<svg width="24" height="24" viewBox="0 0 24 24" fill="none" xmlns="http://www.w3.org/2000/svg">
<path d="M22.5 12C22.5 17.799 17.799 22.5 12 22.5C6.20101 22.5 1.5 17.799 1.5 12C1.5 6.20101 6.20101 1.5 12 1.5C17.799 1.5 22.5 6.20101 22.5 12ZM10.7589 15.7991C10.9578 15.8047 11.1585 15.7315 11.3103 15.5797L17.4621 9.42792C17.5793 9.31076 17.5793 9.12081 17.4621 9.00365L16.5606 8.10209C16.4434 7.98494 16.2535 7.98494 16.1363 8.10209L10.7792 13.4592L7.86377 10.5438C7.74662 10.4266 7.55667 10.4266 7.43951 10.5438L6.53795 11.4454C6.42079 11.5625 6.42079 11.7525 6.53795 11.8696L10.248 15.5797C10.3895 15.7212 10.5735 15.7943 10.7589 15.7991Z" fill="#73C10F"/>
</svg>
