<svg viewBox="0 0 90 44" fill="none" xmlns="http://www.w3.org/2000/svg">
<path fill-rule="evenodd" clip-rule="evenodd" d="M8.43035 29.0984C8.37726 29.0795 8.32464 29.0558 8.27294 29.027L0.512964 24.6989C-0.0948166 24.3599 -0.179106 23.5192 0.34928 23.0663L7.93721 16.5623C10.3577 7.04198 18.9865 0 29.2601 0H67.2601C79.4103 0 89.2601 9.84974 89.2601 22C89.2601 34.1503 79.4103 44 67.2601 44H56.2601H48.7601H40.2601H29.2601C19.5935 44 11.3831 37.7656 8.43035 29.0984Z" fill="url(#paint0_linear_2658_4846)"/>
<g filter="url(#filter0_i_2658_4846)">
<path fill-rule="evenodd" clip-rule="evenodd" d="M8.12989 29.8527L0.52488 24.8347C-0.07413 24.4395 -0.0741297 23.5606 0.52488 23.1653L8.12988 18.1473C10.6325 9.95714 18.2505 4 27.2599 4H69.2599C80.3056 4 89.2599 12.9543 89.2599 24C89.2599 35.0457 80.3056 44 69.2599 44H56.2599H48.2599H40.2599H27.2599C18.2505 44 10.6325 38.0429 8.12989 29.8527Z" fill="url(#paint1_linear_2658_4846)"/>
</g>
<defs>
<filter id="filter0_i_2658_4846" x="0.0756226" y="-8" width="89.1843" height="52" filterUnits="userSpaceOnUse" color-interpolation-filters="sRGB">
<feFlood flood-opacity="0" result="BackgroundImageFix"/>
<feBlend mode="normal" in="SourceGraphic" in2="BackgroundImageFix" result="shape"/>
<feColorMatrix in="SourceAlpha" type="matrix" values="0 0 0 0 0 0 0 0 0 0 0 0 0 0 0 0 0 0 127 0" result="hardAlpha"/>
<feOffset dy="-12"/>
<feGaussianBlur stdDeviation="6"/>
<feComposite in2="hardAlpha" operator="arithmetic" k2="-1" k3="1"/>
<feColorMatrix type="matrix" values="0 0 0 0 1 0 0 0 0 1 0 0 0 0 1 0 0 0 0.3 0"/>
<feBlend mode="normal" in2="shape" result="effect1_innerShadow_2658_4846"/>
</filter>
<linearGradient id="paint0_linear_2658_4846" x1="89.26" y1="19.8636" x2="7.19031" y2="19.8636" gradientUnits="userSpaceOnUse">
<stop offset="0.147342" stop-color="#FB8181"/>
<stop offset="1" stop-color="#A90000"/>
</linearGradient>
<linearGradient id="paint1_linear_2658_4846" x1="28.7849" y1="41.509" x2="47.6342" y2="-5.8886" gradientUnits="userSpaceOnUse">
<stop stop-color="#D10000"/>
<stop offset="1" stop-color="#E17777"/>
</linearGradient>
</defs>
</svg>
