<svg viewBox="0 0 90 44" fill="none" xmlns="http://www.w3.org/2000/svg">
<path fill-rule="evenodd" clip-rule="evenodd" d="M80.8297 29.0984C80.8828 29.0795 80.9354 29.0558 80.9871 29.027L88.7471 24.6989C89.3549 24.3599 89.4392 23.5192 88.9108 23.0663L81.3229 16.5623C78.9024 7.04198 70.2736 0 60 0H22C9.84975 0 1.52588e-05 9.84974 1.52588e-05 22C1.52588e-05 34.1503 9.84975 44 22 44H33H40.5H49H60C69.6665 44 77.8769 37.7656 80.8297 29.0984Z" fill="url(#paint0_linear_3553_1425)"/>
<g filter="url(#filter0_i_3553_1425)">
<path fill-rule="evenodd" clip-rule="evenodd" d="M81.1302 29.8527L88.7352 24.8347C89.3342 24.4395 89.3342 23.5606 88.7352 23.1653L81.1302 18.1473C78.6276 9.95714 71.0095 4 62.0001 4H20.0001C8.95445 4 0.000144958 12.9543 0.000144958 24C0.000144958 35.0457 8.95445 44 20.0001 44H33.0001H41.0001H49.0001H62.0001C71.0095 44 78.6276 38.0429 81.1302 29.8527Z" fill="url(#paint1_linear_3553_1425)"/>
</g>
<defs>
<filter id="filter0_i_3553_1425" x="0.00012207" y="-8" width="89.1843" height="52" filterUnits="userSpaceOnUse" color-interpolation-filters="sRGB">
<feFlood flood-opacity="0" result="BackgroundImageFix"/>
<feBlend mode="normal" in="SourceGraphic" in2="BackgroundImageFix" result="shape"/>
<feColorMatrix in="SourceAlpha" type="matrix" values="0 0 0 0 0 0 0 0 0 0 0 0 0 0 0 0 0 0 127 0" result="hardAlpha"/>
<feOffset dy="-12"/>
<feGaussianBlur stdDeviation="6"/>
<feComposite in2="hardAlpha" operator="arithmetic" k2="-1" k3="1"/>
<feColorMatrix type="matrix" values="0 0 0 0 1 0 0 0 0 1 0 0 0 0 1 0 0 0 0.3 0"/>
<feBlend mode="normal" in2="shape" result="effect1_innerShadow_3553_1425"/>
</filter>
<linearGradient id="paint0_linear_3553_1425" x1="4.40331e-05" y1="19.8636" x2="82.0698" y2="19.8636" gradientUnits="userSpaceOnUse">
<stop offset="0.147342" stop-color="#FB8181"/>
<stop offset="1" stop-color="#A90000"/>
</linearGradient>
<linearGradient id="paint1_linear_3553_1425" x1="60.4751" y1="41.509" x2="41.6259" y2="-5.8886" gradientUnits="userSpaceOnUse">
<stop stop-color="#D10000"/>
<stop offset="1" stop-color="#E17777"/>
</linearGradient>
</defs>
</svg>
