<svg viewBox="0 0 82 50" fill="none" xmlns="http://www.w3.org/2000/svg">
<path d="M0 22C0 9.84974 9.84974 0 22 0H60C72.1503 0 82 9.84974 82 22C82 34.1503 72.1503 44 60 44H52.0769C50.0797 44 48.1363 44.6478 46.5385 45.8462C43.2564 48.3077 38.7436 48.3077 35.4615 45.8462C33.8637 44.6478 31.9203 44 29.9231 44H22C9.84974 44 0 34.1503 0 22Z" fill="url(#paint0_linear_1881_4895)"/>
<g filter="url(#filter0_i_1881_4895)">
<path d="M0 24C0 12.9543 8.95431 4 20 4H62C73.0457 4 82 12.9543 82 24C82 35.0457 73.0457 44 62 44H49.8919C49.313 44 48.7496 44.1878 48.2865 44.5351L42.2 49.1C41.4889 49.6333 40.5111 49.6333 39.8 49.1L33.7135 44.5351C33.2504 44.1878 32.687 44 32.1081 44H20C8.9543 44 0 35.0457 0 24Z" fill="url(#paint1_linear_1881_4895)"/>
</g>
<defs>
<filter id="filter0_i_1881_4895" x="0" y="-8" width="82" height="57.5" filterUnits="userSpaceOnUse" color-interpolation-filters="sRGB">
<feFlood flood-opacity="0" result="BackgroundImageFix"/>
<feBlend mode="normal" in="SourceGraphic" in2="BackgroundImageFix" result="shape"/>
<feColorMatrix in="SourceAlpha" type="matrix" values="0 0 0 0 0 0 0 0 0 0 0 0 0 0 0 0 0 0 127 0" result="hardAlpha"/>
<feOffset dy="-12"/>
<feGaussianBlur stdDeviation="6"/>
<feComposite in2="hardAlpha" operator="arithmetic" k2="-1" k3="1"/>
<feColorMatrix type="matrix" values="0 0 0 0 1 0 0 0 0 1 0 0 0 0 1 0 0 0 0.3 0"/>
<feBlend mode="normal" in2="shape" result="effect1_innerShadow_1881_4895"/>
</filter>
<linearGradient id="paint0_linear_1881_4895" x1="82" y1="19.8636" x2="5.75603e-07" y2="19.8636" gradientUnits="userSpaceOnUse">
<stop offset="0.147342" stop-color="#FB8181"/>
<stop offset="1" stop-color="#A90000"/>
</linearGradient>
<linearGradient id="paint1_linear_1881_4895" x1="21.525" y1="41.5" x2="40.4913" y2="-6.0212" gradientUnits="userSpaceOnUse">
<stop stop-color="#D10000"/>
<stop offset="1" stop-color="#E17777"/>
</linearGradient>
</defs>
</svg>
