<svg viewBox="0 0 68 35" fill="none" xmlns="http://www.w3.org/2000/svg">
<path d="M17.5113 34.768C14.2793 34.768 11.3673 34 8.77525 32.464C6.18325 30.896 4.15125 28.768 2.67925 26.08C1.20725 23.392 0.47125 20.432 0.47125 17.2C0.47125 14.096 1.20725 11.248 2.67925 8.656C4.18325 6.064 6.26325 4.016 8.91925 2.512C11.5753 1.008 14.5993 0.256 17.9913 0.256C19.8473 0.256 21.6393 0.463999 23.3673 0.879997C25.1273 1.296 26.7113 1.888 28.1193 2.656L24.9513 10.096C22.7753 9.2 20.7433 8.752 18.8553 8.752C16.3913 8.752 14.4873 9.552 13.1432 11.152C11.7993 12.72 11.1273 14.784 11.1273 17.344C11.1273 19.008 11.4313 20.512 12.0393 21.856C12.6473 23.168 13.4953 24.208 14.5833 24.976C15.7033 25.744 16.9673 26.128 18.3753 26.128C19.1433 26.128 19.7833 26.064 20.2953 25.936V18.208L28.5993 17.248V32.272C24.9833 33.936 21.2873 34.768 17.5113 34.768ZM49.8239 34.768C46.3679 34.768 43.2959 34.032 40.6079 32.56C37.9519 31.088 35.8719 29.056 34.3679 26.464C32.8959 23.84 32.1599 20.864 32.1599 17.536C32.1599 14.176 32.8959 11.184 34.3679 8.56C35.8719 5.936 37.9519 3.904 40.6079 2.464C43.2959 0.992 46.3679 0.256 49.8239 0.256C53.2799 0.256 56.3359 0.992 58.9919 2.464C61.6799 3.904 63.7599 5.936 65.2319 8.56C66.7359 11.152 67.4879 14.144 67.4879 17.536C67.4879 20.864 66.7359 23.84 65.2319 26.464C63.7599 29.056 61.6799 31.088 58.9919 32.56C56.3039 34.032 53.2479 34.768 49.8239 34.768ZM49.8239 26.032C51.8399 26.032 53.4879 25.248 54.7679 23.68C56.0799 22.112 56.7359 20.048 56.7359 17.488C56.7359 15.792 56.4319 14.288 55.8239 12.976C55.2479 11.632 54.4319 10.592 53.3759 9.856C52.3199 9.088 51.1199 8.704 49.7759 8.704C48.4639 8.704 47.2799 9.088 46.2239 9.856C45.1679 10.592 44.3519 11.632 43.7759 12.976C43.1999 14.288 42.9119 15.792 42.9119 17.488C42.9119 20.048 43.5519 22.112 44.8319 23.68C46.1119 25.248 47.7759 26.032 49.8239 26.032Z" fill="white"/>
<path d="M8.77525 32.464L8.38704 33.1057L8.3929 33.1092L8.77525 32.464ZM2.67925 8.656L2.03052 8.27958L2.02708 8.28563L2.67925 8.656ZM8.91925 2.512L9.28881 3.16463L8.91925 2.512ZM23.3673 0.879997L23.1917 1.60917L23.1947 1.60989L23.3673 0.879997ZM28.1193 2.656L28.8093 2.94982L29.076 2.32353L28.4784 1.99758L28.1193 2.656ZM24.9513 10.096L24.6657 10.7895L25.351 11.0717L25.6413 10.3898L24.9513 10.096ZM13.1432 11.152L13.7127 11.6401L13.7175 11.6344L13.1432 11.152ZM12.0393 21.856L11.3559 22.1651L11.3588 22.1713L12.0393 21.856ZM14.5833 24.976L14.1507 25.5888L14.1591 25.5945L14.5833 24.976ZM20.2952 25.936L20.4772 26.6636L21.0452 26.5216V25.936H20.2952ZM20.2952 18.208L20.2091 17.463L19.5452 17.5397V18.208H20.2952ZM28.5993 17.248H29.3493V16.4063L28.5131 16.503L28.5993 17.248ZM28.5993 32.272L28.9128 32.9533L29.3493 32.7525V32.272H28.5993ZM17.5113 34.018C14.4037 34.018 11.6254 33.2812 9.1576 31.8188L8.3929 33.1092C11.1091 34.7188 14.1549 35.518 17.5113 35.518V34.018ZM9.16345 31.8223C6.68594 30.3235 4.74635 28.2932 3.33707 25.7198L2.02143 26.4402C3.55615 29.2428 5.68056 31.4685 8.38705 33.1057L9.16345 31.8223ZM3.33707 25.7198C1.92888 23.1483 1.22125 20.3132 1.22125 17.2H-0.27875C-0.27875 20.5508 0.485624 23.6357 2.02143 26.4402L3.33707 25.7198ZM1.22125 17.2C1.22125 14.2203 1.92624 11.5007 3.33142 9.02637L2.02708 8.28563C0.488256 10.9953 -0.27875 13.9717 -0.27875 17.2H1.22125ZM3.32795 9.03241C4.7638 6.55786 6.74649 4.60426 9.28881 3.16463L8.54969 1.85937C5.78002 3.42774 3.6027 5.57014 2.03055 8.27959L3.32795 9.03241ZM9.28881 3.16463C11.8199 1.73134 14.714 1.006 17.9913 1.006V-0.494C14.4845 -0.494 11.3306 0.284655 8.54969 1.85937L9.28881 3.16463ZM17.9913 1.006C19.7907 1.006 21.5237 1.20761 23.1917 1.60917L23.5428 0.150829C21.7548 -0.279608 19.9038 -0.494 17.9913 -0.494V1.006ZM23.1947 1.60989C24.8978 2.01242 26.4178 2.58224 27.7601 3.31442L28.4784 1.99758C27.0047 1.19376 25.3567 0.579573 23.5398 0.150109L23.1947 1.60989ZM27.4292 2.36217L24.2612 9.80217L25.6413 10.3898L28.8093 2.94982L27.4292 2.36217ZM25.2368 9.40249C22.9918 8.47807 20.8621 8.002 18.8553 8.002V9.502C20.6244 9.502 22.5587 9.92192 24.6657 10.7895L25.2368 9.40249ZM18.8553 8.002C16.2137 8.002 14.0815 8.86894 12.569 10.6696L13.7175 11.6344C14.893 10.2351 16.5688 9.502 18.8553 9.502V8.002ZM12.5738 10.6639C11.0873 12.3981 10.3773 14.6494 10.3773 17.344H11.8773C11.8773 14.9186 12.5112 13.0419 13.7127 11.6401L12.5738 10.6639ZM10.3773 17.344C10.3773 19.1009 10.6987 20.7123 11.3559 22.1651L12.7226 21.5469C12.1638 20.3117 11.8773 18.9151 11.8773 17.344H10.3773ZM11.3588 22.1713C12.0171 23.5919 12.9464 24.7386 14.1507 25.5887L15.0158 24.3633C14.0441 23.6774 13.2774 22.7441 12.7197 21.5407L11.3588 22.1713ZM14.1591 25.5945C15.4088 26.4515 16.8218 26.878 18.3753 26.878V25.378C17.1127 25.378 15.9977 25.0365 15.0074 24.3575L14.1591 25.5945ZM18.3753 26.878C19.1795 26.878 19.8854 26.8115 20.4772 26.6636L20.1133 25.2084C19.6811 25.3165 19.1071 25.378 18.3753 25.378V26.878ZM21.0452 25.936V18.208H19.5452V25.936H21.0452ZM20.3814 18.953L28.6854 17.993L28.5131 16.503L20.2091 17.463L20.3814 18.953ZM27.8493 17.248V32.272H29.3493V17.248H27.8493ZM28.2857 31.5907C24.7626 33.2119 21.1732 34.018 17.5113 34.018V35.518C21.4013 35.518 25.2039 34.6601 28.9128 32.9533L28.2857 31.5907ZM40.6079 32.56L40.2443 33.216L40.2476 33.2178L40.6079 32.56ZM34.3679 26.464L33.7137 26.831L33.7192 26.8404L34.3679 26.464ZM34.3679 8.56L33.7172 8.18703L33.7138 8.19306L34.3679 8.56ZM40.6079 2.464L40.9653 3.12334L40.9681 3.12182L40.6079 2.464ZM58.9919 2.464L58.6283 3.12006L58.6377 3.12511L58.9919 2.464ZM65.2319 8.56L64.5777 8.92698L64.5832 8.93641L65.2319 8.56ZM65.2319 26.464L64.5812 26.091L64.5797 26.0936L65.2319 26.464ZM58.9919 32.56L59.3521 33.2178L58.9919 32.56ZM54.7679 23.68L54.1926 23.1987L54.1869 23.2057L54.7679 23.68ZM55.8239 12.976L55.1345 13.2714L55.1388 13.2815L55.1434 13.2913L55.8239 12.976ZM53.3759 9.856L52.9347 10.4626L52.9408 10.467L52.947 10.4713L53.3759 9.856ZM46.2239 9.856L46.6527 10.4713L46.6589 10.467L46.665 10.4626L46.2239 9.856ZM43.7759 12.976L44.4626 13.2775L44.4652 13.2714L43.7759 12.976ZM49.8239 34.018C46.4775 34.018 43.5322 33.3063 40.9681 31.9022L40.2476 33.2178C43.0596 34.7577 46.2583 35.518 49.8239 35.518V34.018ZM40.9714 31.904C38.4323 30.4968 36.4516 28.5607 35.0166 26.0876L33.7192 26.8404C35.2922 29.5513 37.4714 31.6792 40.2443 33.216L40.9714 31.904ZM35.022 26.0971C33.6193 23.5967 32.9099 20.7494 32.9099 17.536H31.4099C31.4099 20.9786 32.1724 24.0833 33.7138 26.8309L35.022 26.0971ZM32.9099 17.536C32.9099 14.2892 33.6199 11.4262 35.022 8.92694L33.7138 8.19306C32.1718 10.9418 31.4099 14.0628 31.4099 17.536H32.9099ZM35.0186 8.93296C36.4534 6.42965 38.4319 4.49687 40.9653 3.12333L40.2504 1.80467C37.4718 3.31112 35.2904 5.44234 33.7172 8.18704L35.0186 8.93296ZM40.9681 3.12182C43.5322 1.71768 46.4775 1.006 49.8239 1.006V-0.494C46.2583 -0.494 43.0596 0.266315 40.2476 1.80618L40.9681 3.12182ZM49.8239 1.006C53.1705 1.006 56.0982 1.71774 58.6283 3.11999L59.3554 1.80801C56.5736 0.266259 53.3893 -0.494 49.8239 -0.494V1.006ZM58.6377 3.12511C61.2016 4.4986 63.1767 6.42934 64.5778 8.92694L65.886 8.19306C64.3431 5.44265 62.1582 3.3094 59.346 1.80289L58.6377 3.12511ZM64.5832 8.93641C66.0124 11.3996 66.7379 14.2584 66.7379 17.536H68.2379C68.2379 14.0296 67.4593 10.9044 65.8806 8.18359L64.5832 8.93641ZM66.7379 17.536C66.7379 20.7466 66.0137 23.5917 64.5812 26.091L65.8826 26.837C67.458 24.0883 68.2379 20.9814 68.2379 17.536H66.7379ZM64.5797 26.0936C63.1785 28.561 61.2012 30.4951 58.6316 31.9022L59.3521 33.2178C62.1586 31.6809 64.3413 29.551 65.884 26.8344L64.5797 26.0936ZM58.6316 31.9022C56.0666 33.3069 53.137 34.018 49.8239 34.018V35.518C53.3588 35.518 56.5412 34.7571 59.3521 33.2178L58.6316 31.9022ZM49.8239 26.782C52.0662 26.782 53.9271 25.896 55.3489 24.1543L54.1869 23.2057C53.0486 24.6 51.6136 25.282 49.8239 25.282V26.782ZM55.3431 24.1613C56.7942 22.427 57.4859 20.1783 57.4859 17.488H55.9859C55.9859 19.9177 55.3656 21.797 54.1927 23.1987L55.3431 24.1613ZM57.4859 17.488C57.4859 15.7018 57.1654 14.0871 56.5044 12.6607L55.1434 13.2913C55.6983 14.4889 55.9859 15.8822 55.9859 17.488H57.4859ZM56.5132 12.6806C55.8897 11.2256 54.9908 10.0674 53.8047 9.2407L52.947 10.4713C53.873 11.1166 54.6061 12.0384 55.1345 13.2714L56.5132 12.6806ZM53.817 9.24945C52.6288 8.38534 51.2734 7.954 49.7759 7.954V9.454C50.9663 9.454 52.0109 9.79066 52.9347 10.4626L53.817 9.24945ZM49.7759 7.954C48.3062 7.954 46.9676 8.38774 45.7827 9.24945L46.665 10.4626C47.5922 9.78826 48.6216 9.454 49.7759 9.454V7.954ZM45.795 9.2407C44.609 10.0674 43.7101 11.2256 43.0865 12.6806L44.4652 13.2714C44.9937 12.0384 45.7268 11.1166 46.6527 10.4713L45.795 9.2407ZM43.0891 12.6745C42.4645 14.0974 42.1619 15.707 42.1619 17.488H43.6619C43.6619 15.877 43.9353 14.4786 44.4626 13.2775L43.0891 12.6745ZM42.1619 17.488C42.1619 20.1741 42.8353 22.4202 44.2509 24.1543L45.4129 23.2057C44.2685 21.8038 43.6619 19.9219 43.6619 17.488H42.1619ZM44.2509 24.1543C45.6753 25.8991 47.5537 26.782 49.8239 26.782V25.282C47.998 25.282 46.5485 24.5969 45.4129 23.2057L44.2509 24.1543Z" fill="#52300B"/>
</svg>
