<svg viewBox="0 0 505 598" fill="none" xmlns="http://www.w3.org/2000/svg">
<path d="M13.1448 194.274C42.3838 169.351 204.811 31.7726 227.733 15.1073C250.655 -1.55797 273.563 -7.81493 296.485 15.1073C319.407 38.0296 465.244 176.564 486.195 198.441C507.161 220.318 504.428 239.447 504.428 254.947C504.428 270.448 503.756 345.173 504.547 362.48C505.339 379.788 499.873 392.556 485.299 406.219C470.724 419.883 295.738 570.259 279.327 584.849C262.915 599.424 240.142 604.904 222.82 584.849C205.498 564.794 25.8678 389.823 13.1598 375.233C0.436803 360.659 -0.474114 349.713 0.436803 330.583C1.34772 311.454 0.839996 240.373 0.182941 226.694C-0.474114 213.03 -0.0261214 205.504 13.1448 194.274Z" fill="url(#paint0_radial_4982_4628)"/>
<path d="M28.9136 236.087C51.4327 258.845 204.96 399.35 223.656 417.061C242.337 434.772 252.178 432.8 270.859 417.061C289.541 401.321 465.004 248.407 482.043 228.262C499.096 208.117 483.999 196.246 475.427 187.674C466.856 179.102 300.382 14.4504 287.136 5.87879C273.876 -2.69279 244.697 -1.9312 229.883 10.5379C215.069 22.9921 38.2468 172.099 20.9842 187.599C5.39404 201.607 18.3858 225.455 28.9136 236.087Z" fill="url(#paint1_linear_4982_4628)"/>
<path d="M6.48648 366.781C24.1523 386.404 209.576 570.842 223.315 580.653C237.053 590.464 242.937 584.58 243.922 567.9C244.908 551.22 244.908 495.161 243.922 476.092C242.937 457.037 236.068 450.168 221.358 437.415C206.649 424.662 29.0653 252.977 19.2543 245.122C9.44322 237.267 2.57401 238.253 1.58843 251.991C0.602845 265.729 1.58843 332.435 1.58843 342.246C1.58843 352.057 6.48648 366.767 6.48648 366.767V366.781Z" fill="url(#paint2_linear_4982_4628)"/>
<path d="M276.249 588.612C289.3 582.086 467.825 426.603 480.578 412.879C493.331 399.141 506.561 389.24 504.605 358.837C502.649 328.418 506.367 250.109 504.411 239.342C502.455 228.575 490.165 239.253 476.426 252.976C462.688 266.715 277.264 434.473 267.453 443.313C257.642 452.139 259.598 458.022 258.627 474.702C257.642 491.383 258.627 567.9 258.627 579.682C258.627 591.464 256.641 598.423 276.263 588.612H276.249Z" fill="url(#paint3_linear_4982_4628)"/>
<path fill-rule="evenodd" clip-rule="evenodd" d="M93.4705 372.515C108.628 375.995 132.491 398.798 146.796 423.392C161.117 448.077 160.341 464.906 145.064 461.024C129.773 457.141 105.94 434.443 91.6785 410.087C77.507 385.88 78.3134 369.036 93.4705 372.515Z" fill="url(#paint4_radial_4982_4628)"/>
<path fill-rule="evenodd" clip-rule="evenodd" d="M286.791 459.784C297.827 447.27 314.373 436.578 323.84 435.817C333.263 435.1 331.86 444.821 320.719 457.574C309.594 470.282 293.048 481.004 283.73 481.512C274.397 482.019 275.771 472.298 286.806 459.784H286.791Z" fill="url(#paint5_radial_4982_4628)"/>
<path fill-rule="evenodd" clip-rule="evenodd" d="M426.985 400.889C438.02 388.375 454.566 377.683 464.034 376.921C473.457 376.204 472.053 385.926 460.913 398.678C449.788 411.387 433.242 422.108 423.924 422.616C414.59 423.124 415.964 413.403 427 400.889H426.985Z" fill="url(#paint6_radial_4982_4628)"/>
<path fill-rule="evenodd" clip-rule="evenodd" d="M136.832 199.531C150.302 210.567 150.122 228.681 136.429 240.03C122.78 251.379 100.769 251.842 87.2691 240.941C73.7846 230.129 73.9936 211.971 87.6723 200.442C101.351 188.914 123.362 188.481 136.832 199.531Z" fill="url(#paint7_radial_4982_4628)"/>
<path fill-rule="evenodd" clip-rule="evenodd" d="M277.088 84.4117C290.557 95.4472 290.378 113.561 276.685 124.91C263.036 136.259 241.024 136.722 227.525 125.821C214.04 115.01 214.249 96.8509 227.928 85.3226C241.607 73.7943 263.618 73.3612 277.088 84.4117Z" fill="url(#paint8_radial_4982_4628)"/>
<path fill-rule="evenodd" clip-rule="evenodd" d="M272.963 321.877C286.432 332.913 286.253 351.027 272.56 362.376C258.911 373.725 236.899 374.188 223.4 363.287C209.915 352.475 210.124 334.317 223.803 322.788C237.482 311.26 259.493 310.827 272.963 321.877Z" fill="url(#paint9_radial_4982_4628)"/>
<path fill-rule="evenodd" clip-rule="evenodd" d="M406.033 199.531C419.503 210.567 419.324 228.681 405.63 240.03C391.981 251.379 369.97 251.842 356.47 240.941C342.986 230.129 343.195 211.971 356.873 200.442C370.552 188.914 392.564 188.481 406.033 199.531Z" fill="url(#paint10_radial_4982_4628)"/>
<defs>
<radialGradient id="paint0_radial_4982_4628" cx="0" cy="0" r="1" gradientUnits="userSpaceOnUse" gradientTransform="translate(216.07 331.793) scale(339.877 339.877)">
<stop offset="0.06" stop-color="#28C3FF"/>
<stop offset="0.93" stop-color="#2067EC"/>
<stop offset="0.94" stop-color="#1C67E7"/>
<stop offset="0.97" stop-color="#1269DA"/>
<stop offset="1" stop-color="#0F6AD6"/>
</radialGradient>
<linearGradient id="paint1_linear_4982_4628" x1="266.618" y1="442.148" x2="236.737" y2="-30.7968" gradientUnits="userSpaceOnUse">
<stop stop-color="#11A8F4"/>
<stop offset="0.98" stop-color="#194FBA"/>
</linearGradient>
<linearGradient id="paint2_linear_4982_4628" x1="8.09925" y1="408.027" x2="251.374" y2="418.286" gradientUnits="userSpaceOnUse">
<stop stop-color="#215ED8"/>
<stop offset="1" stop-color="#00ADFF"/>
</linearGradient>
<linearGradient id="paint3_linear_4982_4628" x1="258.179" y1="414.104" x2="504.993" y2="414.104" gradientUnits="userSpaceOnUse">
<stop stop-color="#00A9F3"/>
<stop offset="0.98" stop-color="#005DBF"/>
</linearGradient>
<radialGradient id="paint4_radial_4982_4628" cx="0" cy="0" r="1" gradientUnits="userSpaceOnUse" gradientTransform="translate(83.5008 480.331) rotate(-28.98) scale(111.55 111.55)">
<stop stop-color="#D9F2FC"/>
<stop offset="0.26" stop-color="#D6EFFA"/>
<stop offset="0.44" stop-color="#CDE8F6"/>
<stop offset="0.6" stop-color="#BDDDEF"/>
<stop offset="0.74" stop-color="#A8CCE5"/>
<stop offset="0.87" stop-color="#8CB6D8"/>
<stop offset="0.99" stop-color="#6A9CC8"/>
<stop offset="1" stop-color="#679AC7"/>
</radialGradient>
<radialGradient id="paint5_radial_4982_4628" cx="0" cy="0" r="1" gradientUnits="userSpaceOnUse" gradientTransform="translate(325.904 478.64) rotate(-40.46) scale(58.4182 58.4182)">
<stop stop-color="#D9F2FC"/>
<stop offset="0.26" stop-color="#D6EFFA"/>
<stop offset="0.44" stop-color="#CDE8F6"/>
<stop offset="0.6" stop-color="#BDDDEF"/>
<stop offset="0.74" stop-color="#A8CCE5"/>
<stop offset="0.87" stop-color="#8CB6D8"/>
<stop offset="0.99" stop-color="#6A9CC8"/>
<stop offset="1" stop-color="#679AC7"/>
</radialGradient>
<radialGradient id="paint6_radial_4982_4628" cx="0" cy="0" r="1" gradientUnits="userSpaceOnUse" gradientTransform="translate(466.102 419.756) rotate(-40.46) scale(58.4182 58.4182)">
<stop stop-color="#D9F2FC"/>
<stop offset="0.26" stop-color="#D6EFFA"/>
<stop offset="0.44" stop-color="#CDE8F6"/>
<stop offset="0.6" stop-color="#BDDDEF"/>
<stop offset="0.74" stop-color="#A8CCE5"/>
<stop offset="0.87" stop-color="#8CB6D8"/>
<stop offset="0.99" stop-color="#6A9CC8"/>
<stop offset="1" stop-color="#679AC7"/>
</radialGradient>
<radialGradient id="paint7_radial_4982_4628" cx="0" cy="0" r="1" gradientUnits="userSpaceOnUse" gradientTransform="translate(89.791 194.395) rotate(50.25) scale(66.5119)">
<stop stop-color="#F2FBFF"/>
<stop offset="0.28" stop-color="#EFF9FE"/>
<stop offset="0.47" stop-color="#E6F3FB"/>
<stop offset="0.64" stop-color="#D6E9F7"/>
<stop offset="0.79" stop-color="#C1DBF1"/>
<stop offset="0.93" stop-color="#A5C9EA"/>
<stop offset="1" stop-color="#95BFE6"/>
</radialGradient>
<radialGradient id="paint8_radial_4982_4628" cx="0" cy="0" r="1" gradientUnits="userSpaceOnUse" gradientTransform="translate(230.036 79.2723) rotate(50.25) scale(66.5119)">
<stop stop-color="#F2FBFF"/>
<stop offset="0.28" stop-color="#EFF9FE"/>
<stop offset="0.47" stop-color="#E6F3FB"/>
<stop offset="0.64" stop-color="#D6E9F7"/>
<stop offset="0.79" stop-color="#C1DBF1"/>
<stop offset="0.93" stop-color="#A5C9EA"/>
<stop offset="1" stop-color="#95BFE6"/>
</radialGradient>
<radialGradient id="paint9_radial_4982_4628" cx="0" cy="0" r="1" gradientUnits="userSpaceOnUse" gradientTransform="translate(225.921 316.737) rotate(50.25) scale(66.5119 66.5119)">
<stop stop-color="#F2FBFF"/>
<stop offset="0.28" stop-color="#EFF9FE"/>
<stop offset="0.47" stop-color="#E6F3FB"/>
<stop offset="0.64" stop-color="#D6E9F7"/>
<stop offset="0.79" stop-color="#C1DBF1"/>
<stop offset="0.93" stop-color="#A5C9EA"/>
<stop offset="1" stop-color="#95BFE6"/>
</radialGradient>
<radialGradient id="paint10_radial_4982_4628" cx="0" cy="0" r="1" gradientUnits="userSpaceOnUse" gradientTransform="translate(358.993 194.371) rotate(50.25) scale(66.5119 66.5119)">
<stop stop-color="#F2FBFF"/>
<stop offset="0.28" stop-color="#EFF9FE"/>
<stop offset="0.47" stop-color="#E6F3FB"/>
<stop offset="0.64" stop-color="#D6E9F7"/>
<stop offset="0.79" stop-color="#C1DBF1"/>
<stop offset="0.93" stop-color="#A5C9EA"/>
<stop offset="1" stop-color="#95BFE6"/>
</radialGradient>
</defs>
</svg>
