<svg viewBox="0 0 505 598" fill="none" xmlns="http://www.w3.org/2000/svg">
<path d="M13.1448 194.104C42.3838 169.181 204.811 31.6022 227.733 14.9369C250.655 -1.72838 273.563 -7.98534 296.485 14.9369C319.407 37.8592 465.244 176.393 486.195 198.27C507.146 220.147 504.428 239.276 504.428 254.777C504.428 270.278 503.756 345.003 504.547 362.31C505.339 379.617 499.873 392.385 485.299 406.049C470.724 419.713 295.738 570.089 279.327 584.678C262.915 599.253 240.143 604.734 222.82 584.678C205.498 564.623 25.8678 389.653 13.1598 375.063C0.436803 360.488 -0.474114 349.542 0.436803 330.413C1.34772 311.284 0.839996 240.202 0.182941 226.524C-0.474114 212.86 -0.0261214 205.334 13.1448 194.104Z" fill="white"/>
</svg>
