<svg viewBox="0 0 505 598" fill="none" xmlns="http://www.w3.org/2000/svg">
<path d="M13.1448 194.104C42.3838 169.181 204.811 31.6022 227.733 14.9369C250.655 -1.72838 273.563 -7.98534 296.485 14.9369C319.407 37.8592 465.244 176.393 486.195 198.27C507.146 220.147 504.428 239.276 504.428 254.777C504.428 270.278 503.756 345.003 504.547 362.31C505.339 379.617 499.873 392.385 485.299 406.049C470.724 419.713 295.738 570.089 279.327 584.678C262.915 599.253 240.143 604.734 222.82 584.678C205.498 564.623 25.8678 389.653 13.1598 375.063C0.436803 360.488 -0.474114 349.542 0.436803 330.413C1.34772 311.284 0.839996 240.202 0.182941 226.524C-0.474114 212.86 -0.0261214 205.334 13.1448 194.104Z" fill="url(#paint0_radial_4982_4552)"/>
<path d="M28.9136 235.917C51.4327 258.675 204.96 399.18 223.656 416.891C242.337 434.601 252.178 432.63 270.859 416.891C289.541 401.151 465.004 248.236 482.043 228.092C499.096 207.947 483.999 196.075 475.427 187.504C466.856 178.932 300.382 14.28 287.136 5.70838C273.876 -2.8632 244.697 -2.10161 229.883 10.3675C215.069 22.8366 38.2468 171.928 20.9842 187.429C5.39404 201.436 18.3858 225.284 28.9136 235.917Z" fill="url(#paint1_linear_4982_4552)"/>
<path d="M6.48648 366.611C24.1523 386.233 209.576 570.671 223.315 580.482C237.053 590.293 242.937 584.409 243.922 567.729C244.908 551.049 244.908 494.99 243.922 475.921C242.937 456.866 236.068 449.997 221.358 437.244C206.649 424.491 29.0653 252.806 19.2543 244.951C9.44322 237.096 2.57401 238.082 1.58843 251.82C0.602845 265.558 1.58843 332.265 1.58843 342.076C1.58843 351.887 6.48648 366.596 6.48648 366.596V366.611Z" fill="url(#paint2_linear_4982_4552)"/>
<path d="M276.25 588.441C289.302 581.916 467.827 426.433 480.58 412.709C493.333 398.986 506.563 389.07 504.607 358.666C502.651 328.263 506.369 249.939 504.413 239.172C502.457 228.405 490.167 239.082 476.428 252.806C462.69 266.544 277.266 434.302 267.455 443.143C257.644 451.983 259.6 457.852 258.629 474.532C257.644 491.212 258.629 567.729 258.629 579.511C258.629 591.294 256.643 598.252 276.265 588.441H276.25Z" fill="url(#paint3_linear_4982_4552)"/>
<path fill-rule="evenodd" clip-rule="evenodd" d="M27.3165 281.627C36.3809 284.375 49.9252 299.203 57.5858 314.749C65.2614 330.339 64.0817 340.523 54.9725 337.537C45.8484 334.55 32.3041 319.766 24.6584 304.385C17.0575 289.094 18.2372 278.894 27.3016 281.642L27.3165 281.627Z" fill="url(#paint4_radial_4982_4552)"/>
<path fill-rule="evenodd" clip-rule="evenodd" d="M183.32 479.485C192.385 482.232 205.929 497.061 213.59 512.606C221.265 528.196 220.086 538.381 210.976 535.394C201.852 532.407 188.308 517.624 180.662 502.243C173.061 486.951 174.241 476.752 183.305 479.499L183.32 479.485Z" fill="url(#paint5_radial_4982_4552)"/>
<path fill-rule="evenodd" clip-rule="evenodd" d="M303.188 446.01C314.224 433.496 330.769 422.804 340.237 422.042C349.66 421.325 348.256 431.047 337.116 443.8C325.991 456.508 309.445 467.23 300.127 467.737C290.794 468.245 292.167 458.524 303.203 446.01H303.188Z" fill="url(#paint6_radial_4982_4552)"/>
<path fill-rule="evenodd" clip-rule="evenodd" d="M309.551 510.76C320.587 498.246 337.133 487.554 346.6 486.792C356.023 486.075 354.619 495.797 343.479 508.55C332.354 521.258 315.808 531.98 306.49 532.487C297.157 532.995 298.531 523.274 309.566 510.76H309.551Z" fill="url(#paint7_radial_4982_4552)"/>
<path fill-rule="evenodd" clip-rule="evenodd" d="M426.985 403.212C438.02 390.698 454.566 380.006 464.034 379.244C473.457 378.527 472.053 388.249 460.913 401.002C449.788 413.71 433.242 424.432 423.924 424.939C414.59 425.447 415.964 415.726 427 403.212H426.985Z" fill="url(#paint8_radial_4982_4552)"/>
<path fill-rule="evenodd" clip-rule="evenodd" d="M418.1 351.797C429.136 339.283 445.681 328.591 455.149 327.83C464.572 327.113 463.168 336.834 452.028 349.587C440.903 362.295 424.357 373.017 415.039 373.525C405.706 374.033 407.079 364.311 418.115 351.797H418.1Z" fill="url(#paint9_radial_4982_4552)"/>
<path fill-rule="evenodd" clip-rule="evenodd" d="M298.739 163.268C326.201 185.787 325.858 222.701 297.903 245.848C270.068 268.994 225.179 269.935 197.657 247.714C170.166 225.673 170.599 188.624 198.494 165.134C226.389 141.645 271.262 140.749 298.739 163.268Z" fill="url(#paint10_radial_4982_4552)"/>
<defs>
<radialGradient id="paint0_radial_4982_4552" cx="0" cy="0" r="1" gradientUnits="userSpaceOnUse" gradientTransform="translate(216.07 331.623) scale(339.877 339.877)">
<stop offset="0.06" stop-color="#28C3FF"/>
<stop offset="0.93" stop-color="#2067EC"/>
<stop offset="0.94" stop-color="#1C67E7"/>
<stop offset="0.97" stop-color="#1269DA"/>
<stop offset="1" stop-color="#0F6AD6"/>
</radialGradient>
<linearGradient id="paint1_linear_4982_4552" x1="266.618" y1="441.978" x2="236.737" y2="-30.9672" gradientUnits="userSpaceOnUse">
<stop stop-color="#11A8F4"/>
<stop offset="0.98" stop-color="#194FBA"/>
</linearGradient>
<linearGradient id="paint2_linear_4982_4552" x1="8.09925" y1="407.856" x2="251.374" y2="418.115" gradientUnits="userSpaceOnUse">
<stop stop-color="#215ED8"/>
<stop offset="1" stop-color="#00ADFF"/>
</linearGradient>
<linearGradient id="paint3_linear_4982_4552" x1="258.181" y1="413.934" x2="504.995" y2="413.934" gradientUnits="userSpaceOnUse">
<stop stop-color="#00A9F3"/>
<stop offset="0.98" stop-color="#005DBF"/>
</linearGradient>
<radialGradient id="paint4_radial_4982_4552" cx="0" cy="0" r="1" gradientUnits="userSpaceOnUse" gradientTransform="translate(16.7819 346.751) rotate(-25.07) scale(67.9156 67.9156)">
<stop stop-color="#D9F2FC"/>
<stop offset="0.26" stop-color="#D6EFFA"/>
<stop offset="0.44" stop-color="#CDE8F6"/>
<stop offset="0.6" stop-color="#BDDDEF"/>
<stop offset="0.74" stop-color="#A8CCE5"/>
<stop offset="0.87" stop-color="#8CB6D8"/>
<stop offset="0.99" stop-color="#6A9CC8"/>
<stop offset="1" stop-color="#679AC7"/>
</radialGradient>
<radialGradient id="paint5_radial_4982_4552" cx="0" cy="0" r="1" gradientUnits="userSpaceOnUse" gradientTransform="translate(172.786 544.608) rotate(-25.07) scale(67.9156 67.9156)">
<stop stop-color="#D9F2FC"/>
<stop offset="0.26" stop-color="#D6EFFA"/>
<stop offset="0.44" stop-color="#CDE8F6"/>
<stop offset="0.6" stop-color="#BDDDEF"/>
<stop offset="0.74" stop-color="#A8CCE5"/>
<stop offset="0.87" stop-color="#8CB6D8"/>
<stop offset="0.99" stop-color="#6A9CC8"/>
<stop offset="1" stop-color="#679AC7"/>
</radialGradient>
<radialGradient id="paint6_radial_4982_4552" cx="0" cy="0" r="1" gradientUnits="userSpaceOnUse" gradientTransform="translate(342.304 464.846) rotate(-40.46) scale(58.4182 58.4182)">
<stop stop-color="#F2FBFF"/>
<stop offset="0.28" stop-color="#EFF9FE"/>
<stop offset="0.47" stop-color="#E6F3FB"/>
<stop offset="0.64" stop-color="#D6E9F7"/>
<stop offset="0.79" stop-color="#C1DBF1"/>
<stop offset="0.93" stop-color="#A5C9EA"/>
<stop offset="1" stop-color="#95BFE6"/>
</radialGradient>
<radialGradient id="paint7_radial_4982_4552" cx="0" cy="0" r="1" gradientUnits="userSpaceOnUse" gradientTransform="translate(348.646 529.604) rotate(-40.46) scale(58.4182)">
<stop stop-color="#F2FBFF"/>
<stop offset="0.28" stop-color="#EFF9FE"/>
<stop offset="0.47" stop-color="#E6F3FB"/>
<stop offset="0.64" stop-color="#D6E9F7"/>
<stop offset="0.79" stop-color="#C1DBF1"/>
<stop offset="0.93" stop-color="#A5C9EA"/>
<stop offset="1" stop-color="#95BFE6"/>
</radialGradient>
<radialGradient id="paint8_radial_4982_4552" cx="0" cy="0" r="1" gradientUnits="userSpaceOnUse" gradientTransform="translate(466.088 422.041) rotate(-40.46) scale(58.4182)">
<stop stop-color="#F2FBFF"/>
<stop offset="0.28" stop-color="#EFF9FE"/>
<stop offset="0.47" stop-color="#E6F3FB"/>
<stop offset="0.64" stop-color="#D6E9F7"/>
<stop offset="0.79" stop-color="#C1DBF1"/>
<stop offset="0.93" stop-color="#A5C9EA"/>
<stop offset="1" stop-color="#95BFE6"/>
</radialGradient>
<radialGradient id="paint9_radial_4982_4552" cx="0" cy="0" r="1" gradientUnits="userSpaceOnUse" gradientTransform="translate(457.195 370.629) rotate(-40.46) scale(58.4182 58.4182)">
<stop stop-color="#F2FBFF"/>
<stop offset="0.28" stop-color="#EFF9FE"/>
<stop offset="0.47" stop-color="#E6F3FB"/>
<stop offset="0.64" stop-color="#D6E9F7"/>
<stop offset="0.79" stop-color="#C1DBF1"/>
<stop offset="0.93" stop-color="#A5C9EA"/>
<stop offset="1" stop-color="#95BFE6"/>
</radialGradient>
<radialGradient id="paint10_radial_4982_4552" cx="0" cy="0" r="1" gradientUnits="userSpaceOnUse" gradientTransform="translate(202.527 152.993) rotate(50.25) scale(135.622 135.622)">
<stop stop-color="#F2FBFF"/>
<stop offset="0.28" stop-color="#EFF9FE"/>
<stop offset="0.47" stop-color="#E6F3FB"/>
<stop offset="0.64" stop-color="#D6E9F7"/>
<stop offset="0.79" stop-color="#C1DBF1"/>
<stop offset="0.93" stop-color="#A5C9EA"/>
<stop offset="1" stop-color="#95BFE6"/>
</radialGradient>
</defs>
</svg>
