<svg viewBox="0 0 505 598" fill="none" xmlns="http://www.w3.org/2000/svg">
<path d="M13.1449 194.102C42.3838 169.179 204.811 31.602 227.733 14.9368C250.656 -1.72837 273.563 -7.98527 296.485 14.9368C319.407 37.8589 465.244 176.392 486.195 198.269C507.161 220.145 504.428 239.274 504.428 254.775C504.428 270.275 503.756 345 504.548 362.307C505.339 379.629 499.874 392.382 485.299 406.046C470.724 419.709 295.739 570.084 279.327 584.674C262.916 599.248 240.143 604.729 222.82 584.674C205.498 564.619 25.8529 389.649 13.1449 375.075C0.436803 360.485 -0.474115 349.539 0.436804 330.41C1.34772 311.281 0.839997 240.2 0.182941 226.522C-0.474115 212.858 -0.0261214 205.332 13.1449 194.102Z" fill="url(#paint0_radial_4982_4580)"/>
<path d="M28.9156 235.915C51.4347 258.673 204.962 399.177 223.658 416.887C242.339 434.598 252.18 432.626 270.861 416.887C289.543 401.148 465.006 248.234 482.045 228.09C499.099 207.945 484.001 196.074 475.43 187.502C466.858 178.931 300.384 14.2798 287.138 5.70834C273.878 -2.86318 244.699 -2.1016 229.885 10.3674C215.071 22.8364 38.2488 171.927 20.9861 187.427C5.39599 201.435 18.3878 225.282 28.9156 235.915Z" fill="url(#paint1_linear_4982_4580)"/>
<path d="M6.48648 366.608C24.1523 386.23 209.576 570.667 223.315 580.478C237.053 590.289 242.937 584.405 243.923 567.725C244.908 551.045 244.908 494.987 243.923 475.917C242.937 456.863 236.068 449.994 221.359 437.241C206.65 424.488 29.0653 252.804 19.2543 244.949C9.44323 237.095 2.57401 238.08 1.58843 251.818C0.602844 265.557 1.58843 332.262 1.58843 342.073C1.58843 351.884 6.48648 366.593 6.48648 366.593V366.608Z" fill="url(#paint2_linear_4982_4580)"/>
<path d="M276.249 588.437C289.3 581.911 467.825 426.429 480.578 412.706C493.331 398.967 506.562 389.067 504.605 358.663C502.649 328.245 506.367 249.936 504.411 239.17C502.455 228.403 490.165 239.08 476.427 252.804C462.688 266.542 277.264 434.299 267.453 443.139C257.642 451.964 259.598 457.848 258.627 474.528C257.642 491.208 258.627 567.725 258.627 579.507C258.627 591.289 256.641 598.247 276.263 588.437H276.249Z" fill="url(#paint3_linear_4982_4580)"/>
<path fill-rule="evenodd" clip-rule="evenodd" d="M30.5548 279.161C39.6192 281.909 53.1635 296.738 60.8241 312.283C68.4997 327.873 67.32 338.057 58.2108 335.071C49.0867 332.084 35.5424 317.3 27.8967 301.919C20.2957 286.628 21.4755 276.429 30.5398 279.176L30.5548 279.161Z" fill="url(#paint4_radial_4982_4580)"/>
<path fill-rule="evenodd" clip-rule="evenodd" d="M106.594 382.183C115.658 384.93 129.203 399.759 136.863 415.304C144.539 430.894 143.359 441.079 134.25 438.092C125.126 435.106 111.581 420.322 103.936 404.941C96.3348 389.649 97.5145 379.45 106.579 382.198L106.594 382.183Z" fill="url(#paint5_radial_4982_4580)"/>
<path fill-rule="evenodd" clip-rule="evenodd" d="M430.225 400.745C441.261 388.231 457.807 377.539 467.274 376.777C476.697 376.06 475.293 385.782 464.153 398.534C453.028 411.243 436.482 421.964 427.164 422.472C417.831 422.98 419.204 413.258 430.24 400.745H430.225Z" fill="url(#paint6_radial_4982_4580)"/>
<path fill-rule="evenodd" clip-rule="evenodd" d="M418.098 336.712C429.134 324.198 445.68 313.506 455.147 312.745C464.57 312.028 463.166 321.749 452.026 334.502C440.901 347.21 424.355 357.932 415.037 358.44C405.704 358.948 407.078 349.226 418.113 336.712H418.098Z" fill="url(#paint7_radial_4982_4580)"/>
<path fill-rule="evenodd" clip-rule="evenodd" d="M145.211 191.594C158.681 202.63 158.501 220.744 144.808 232.093C131.159 243.442 109.148 243.905 95.648 233.004C82.1635 222.192 82.3725 204.034 96.0512 192.505C109.73 180.977 131.741 180.544 145.211 191.594Z" fill="url(#paint8_radial_4982_4580)"/>
<path fill-rule="evenodd" clip-rule="evenodd" d="M414.41 191.594C427.88 202.63 427.701 220.744 414.007 232.093C400.358 243.442 378.347 243.905 364.847 233.004C351.363 222.192 351.572 204.034 365.25 192.505C378.929 180.977 400.941 180.544 414.41 191.594Z" fill="url(#paint9_radial_4982_4580)"/>
<path fill-rule="evenodd" clip-rule="evenodd" d="M186.711 479.173C195.775 481.92 209.32 496.749 216.98 512.294C224.656 527.884 223.476 538.069 214.367 535.082C205.243 532.095 191.699 517.312 184.053 501.931C176.452 486.639 177.632 476.44 186.696 479.187L186.711 479.173Z" fill="url(#paint10_radial_4982_4580)"/>
<path fill-rule="evenodd" clip-rule="evenodd" d="M312.776 508.292C323.811 495.778 340.357 485.086 349.825 484.324C359.248 483.608 357.844 493.329 346.704 506.082C335.579 518.79 319.033 529.512 309.715 530.02C300.381 530.527 301.755 520.806 312.791 508.292H312.776Z" fill="url(#paint11_radial_4982_4580)"/>
<path fill-rule="evenodd" clip-rule="evenodd" d="M306.43 443.542C317.466 431.028 334.012 420.336 343.479 419.575C352.902 418.858 351.498 428.579 340.358 441.332C329.233 454.04 312.687 464.762 303.369 465.27C294.036 465.778 295.41 456.056 306.445 443.542H306.43Z" fill="url(#paint12_radial_4982_4580)"/>
<defs>
<radialGradient id="paint0_radial_4982_4580" cx="0" cy="0" r="1" gradientUnits="userSpaceOnUse" gradientTransform="translate(216.071 331.62) scale(339.877 339.874)">
<stop offset="0.06" stop-color="#28C3FF"/>
<stop offset="0.93" stop-color="#2067EC"/>
<stop offset="0.94" stop-color="#1C67E7"/>
<stop offset="0.97" stop-color="#1269DA"/>
<stop offset="1" stop-color="#0F6AD6"/>
</radialGradient>
<linearGradient id="paint1_linear_4982_4580" x1="266.62" y1="441.974" x2="236.74" y2="-30.967" gradientUnits="userSpaceOnUse">
<stop stop-color="#11A8F4"/>
<stop offset="0.98" stop-color="#194FBA"/>
</linearGradient>
<linearGradient id="paint2_linear_4982_4580" x1="8.09925" y1="407.853" x2="251.374" y2="418.112" gradientUnits="userSpaceOnUse">
<stop stop-color="#215ED8"/>
<stop offset="1" stop-color="#00ADFF"/>
</linearGradient>
<linearGradient id="paint3_linear_4982_4580" x1="258.179" y1="413.93" x2="504.994" y2="413.93" gradientUnits="userSpaceOnUse">
<stop stop-color="#00A9F3"/>
<stop offset="0.98" stop-color="#005DBF"/>
</linearGradient>
<radialGradient id="paint4_radial_4982_4580" cx="0" cy="0" r="1" gradientUnits="userSpaceOnUse" gradientTransform="translate(20.0208 344.275) rotate(-25.07) scale(67.9157 67.9157)">
<stop stop-color="#D9F2FC"/>
<stop offset="0.26" stop-color="#D6EFFA"/>
<stop offset="0.44" stop-color="#CDE8F6"/>
<stop offset="0.6" stop-color="#BDDDEF"/>
<stop offset="0.74" stop-color="#A8CCE5"/>
<stop offset="0.87" stop-color="#8CB6D8"/>
<stop offset="0.99" stop-color="#6A9CC8"/>
<stop offset="1" stop-color="#679AC7"/>
</radialGradient>
<radialGradient id="paint5_radial_4982_4580" cx="0" cy="0" r="1" gradientUnits="userSpaceOnUse" gradientTransform="translate(96.0484 447.307) rotate(-25.07) scale(67.9157)">
<stop stop-color="#D9F2FC"/>
<stop offset="0.26" stop-color="#D6EFFA"/>
<stop offset="0.44" stop-color="#CDE8F6"/>
<stop offset="0.6" stop-color="#BDDDEF"/>
<stop offset="0.74" stop-color="#A8CCE5"/>
<stop offset="0.87" stop-color="#8CB6D8"/>
<stop offset="0.99" stop-color="#6A9CC8"/>
<stop offset="1" stop-color="#679AC7"/>
</radialGradient>
<radialGradient id="paint6_radial_4982_4580" cx="0" cy="0" r="1" gradientUnits="userSpaceOnUse" gradientTransform="translate(469.328 419.585) rotate(-40.46) scale(58.4183 58.4182)">
<stop stop-color="#F2FBFF"/>
<stop offset="0.28" stop-color="#EFF9FE"/>
<stop offset="0.47" stop-color="#E6F3FB"/>
<stop offset="0.64" stop-color="#D6E9F7"/>
<stop offset="0.79" stop-color="#C1DBF1"/>
<stop offset="0.93" stop-color="#A5C9EA"/>
<stop offset="1" stop-color="#95BFE6"/>
</radialGradient>
<radialGradient id="paint7_radial_4982_4580" cx="0" cy="0" r="1" gradientUnits="userSpaceOnUse" gradientTransform="translate(457.209 355.555) rotate(-40.46) scale(58.4182 58.4182)">
<stop stop-color="#F2FBFF"/>
<stop offset="0.28" stop-color="#EFF9FE"/>
<stop offset="0.47" stop-color="#E6F3FB"/>
<stop offset="0.64" stop-color="#D6E9F7"/>
<stop offset="0.79" stop-color="#C1DBF1"/>
<stop offset="0.93" stop-color="#A5C9EA"/>
<stop offset="1" stop-color="#95BFE6"/>
</radialGradient>
<radialGradient id="paint8_radial_4982_4580" cx="0" cy="0" r="1" gradientUnits="userSpaceOnUse" gradientTransform="translate(98.1287 186.519) rotate(50.25) scale(66.512 66.512)">
<stop stop-color="#F2FBFF"/>
<stop offset="0.28" stop-color="#EFF9FE"/>
<stop offset="0.47" stop-color="#E6F3FB"/>
<stop offset="0.64" stop-color="#D6E9F7"/>
<stop offset="0.79" stop-color="#C1DBF1"/>
<stop offset="0.93" stop-color="#A5C9EA"/>
<stop offset="1" stop-color="#95BFE6"/>
</radialGradient>
<radialGradient id="paint9_radial_4982_4580" cx="0" cy="0" r="1" gradientUnits="userSpaceOnUse" gradientTransform="translate(367.327 186.516) rotate(50.25) scale(66.512 66.512)">
<stop stop-color="#F2FBFF"/>
<stop offset="0.28" stop-color="#EFF9FE"/>
<stop offset="0.47" stop-color="#E6F3FB"/>
<stop offset="0.64" stop-color="#D6E9F7"/>
<stop offset="0.79" stop-color="#C1DBF1"/>
<stop offset="0.93" stop-color="#A5C9EA"/>
<stop offset="1" stop-color="#95BFE6"/>
</radialGradient>
<radialGradient id="paint10_radial_4982_4580" cx="0" cy="0" r="1" gradientUnits="userSpaceOnUse" gradientTransform="translate(176.157 544.295) rotate(-25.07) scale(67.9157 67.9157)">
<stop stop-color="#D9F2FC"/>
<stop offset="0.26" stop-color="#D6EFFA"/>
<stop offset="0.44" stop-color="#CDE8F6"/>
<stop offset="0.6" stop-color="#BDDDEF"/>
<stop offset="0.74" stop-color="#A8CCE5"/>
<stop offset="0.87" stop-color="#8CB6D8"/>
<stop offset="0.99" stop-color="#6A9CC8"/>
<stop offset="1" stop-color="#679AC7"/>
</radialGradient>
<radialGradient id="paint11_radial_4982_4580" cx="0" cy="0" r="1" gradientUnits="userSpaceOnUse" gradientTransform="translate(351.896 527.137) rotate(-40.46) scale(58.4182 58.4182)">
<stop stop-color="#F2FBFF"/>
<stop offset="0.28" stop-color="#EFF9FE"/>
<stop offset="0.47" stop-color="#E6F3FB"/>
<stop offset="0.64" stop-color="#D6E9F7"/>
<stop offset="0.79" stop-color="#C1DBF1"/>
<stop offset="0.93" stop-color="#A5C9EA"/>
<stop offset="1" stop-color="#95BFE6"/>
</radialGradient>
<radialGradient id="paint12_radial_4982_4580" cx="0" cy="0" r="1" gradientUnits="userSpaceOnUse" gradientTransform="translate(345.546 462.39) rotate(-40.46) scale(58.4182 58.4182)">
<stop stop-color="#F2FBFF"/>
<stop offset="0.28" stop-color="#EFF9FE"/>
<stop offset="0.47" stop-color="#E6F3FB"/>
<stop offset="0.64" stop-color="#D6E9F7"/>
<stop offset="0.79" stop-color="#C1DBF1"/>
<stop offset="0.93" stop-color="#A5C9EA"/>
<stop offset="1" stop-color="#95BFE6"/>
</radialGradient>
</defs>
</svg>
