<svg viewBox="0 0 505 599" fill="none" xmlns="http://www.w3.org/2000/svg">
<path d="M13.1448 194.642C42.3838 169.718 204.811 32.1398 227.733 15.4745C250.655 -1.19078 273.563 -7.44774 296.485 15.4745C319.407 38.3968 465.244 176.931 486.195 198.808C507.161 220.685 504.428 239.814 504.428 255.315C504.428 270.815 503.756 345.54 504.547 362.848C505.339 380.155 499.873 392.923 485.299 406.587C470.724 420.25 295.738 570.626 279.327 585.216C262.915 599.791 240.143 605.271 222.82 585.216C205.498 565.161 25.8678 390.19 13.1598 375.601C0.436803 361.026 -0.474114 350.08 0.436803 330.951C1.34772 311.821 0.839996 240.74 0.182941 227.061C-0.474114 213.397 -0.0261214 205.871 13.1448 194.642Z" fill="url(#paint0_radial_4982_4615)"/>
<path d="M28.9136 236.454C51.4327 259.212 204.96 399.718 223.656 417.428C242.337 435.139 252.178 433.168 270.859 417.428C289.541 401.689 465.004 248.774 482.043 228.629C499.096 208.485 483.999 196.613 475.427 188.041C466.856 179.47 300.382 14.8176 287.136 6.24598C273.876 -2.3256 244.697 -1.56402 229.883 10.9051C215.069 23.3742 38.2468 172.466 20.9842 187.967C5.39404 201.974 18.3858 225.822 28.9136 236.454Z" fill="url(#paint1_linear_4982_4615)"/>
<path d="M6.48452 367.149C24.1503 386.771 209.574 571.209 223.313 581.02C237.051 590.831 242.935 584.948 243.92 568.267C244.906 551.587 244.906 495.528 243.92 476.459C242.935 457.404 236.066 450.535 221.356 437.782C206.647 425.029 29.0633 253.344 19.2523 245.489C9.44127 237.634 2.57206 238.62 1.58647 252.358C0.600892 266.097 1.58647 332.803 1.58647 342.614C1.58647 352.425 6.48452 367.134 6.48452 367.134V367.149Z" fill="url(#paint2_linear_4982_4615)"/>
<path d="M276.25 588.979C289.302 582.453 467.827 426.97 480.58 413.247C493.333 399.508 506.563 389.608 504.607 359.204C502.651 328.785 506.369 250.476 504.413 239.709C502.457 228.943 490.167 239.62 476.428 253.343C462.69 267.082 277.266 434.84 267.455 443.68C257.644 452.506 259.6 458.389 258.629 475.07C257.644 491.75 258.629 568.267 258.629 580.049C258.629 591.831 256.643 598.79 276.265 588.979H276.25Z" fill="url(#paint3_linear_4982_4615)"/>
<path fill-rule="evenodd" clip-rule="evenodd" d="M36.5137 284.554C45.5781 287.302 59.1224 302.13 66.7831 317.675C74.4587 333.266 73.279 343.45 64.1698 340.463C55.0457 337.477 41.5014 322.693 33.8557 307.312C26.2547 292.02 27.4344 281.821 36.4988 284.569L36.5137 284.554Z" fill="url(#paint4_radial_4982_4615)"/>
<path fill-rule="evenodd" clip-rule="evenodd" d="M192.668 484.568C201.732 487.315 215.277 502.144 222.937 517.689C230.613 533.279 229.433 543.464 220.324 540.477C211.2 537.49 197.656 522.707 190.01 507.326C182.409 492.034 183.589 481.835 192.653 484.582L192.668 484.568Z" fill="url(#paint5_radial_4982_4615)"/>
<path fill-rule="evenodd" clip-rule="evenodd" d="M304.639 459.778C315.675 447.264 332.221 436.572 341.688 435.811C351.111 435.094 349.707 444.815 338.567 457.568C327.442 470.276 310.896 480.998 301.578 481.506C292.245 482.014 293.619 472.292 304.654 459.778H304.639Z" fill="url(#paint6_radial_4982_4615)"/>
<path fill-rule="evenodd" clip-rule="evenodd" d="M304.639 519.242C315.675 506.728 332.221 496.036 341.688 495.275C351.111 494.558 349.707 504.279 338.567 517.032C327.442 529.74 310.896 540.462 301.578 540.97C292.245 541.477 293.619 531.756 304.654 519.242H304.639Z" fill="url(#paint7_radial_4982_4615)"/>
<path fill-rule="evenodd" clip-rule="evenodd" d="M432.465 402.868C443.501 390.354 460.047 379.662 469.514 378.901C478.937 378.184 477.533 387.905 466.393 400.658C455.268 413.366 438.722 424.088 429.404 424.596C420.071 425.103 421.445 415.382 432.48 402.868H432.465Z" fill="url(#paint8_radial_4982_4615)"/>
<path fill-rule="evenodd" clip-rule="evenodd" d="M426.147 335.058C437.182 322.544 453.728 311.852 463.196 311.09C472.619 310.373 471.215 320.095 460.075 332.847C448.95 345.555 432.404 356.277 423.086 356.785C413.752 357.293 415.126 347.571 426.162 335.058H426.147Z" fill="url(#paint9_radial_4982_4615)"/>
<path fill-rule="evenodd" clip-rule="evenodd" d="M144.018 194.761C157.487 205.797 157.308 223.911 143.614 235.26C129.966 246.609 107.954 247.072 94.4547 236.171C80.9701 225.359 81.1792 207.201 94.8579 195.672C108.537 184.144 130.548 183.711 144.018 194.761Z" fill="url(#paint10_radial_4982_4615)"/>
<path fill-rule="evenodd" clip-rule="evenodd" d="M280.133 194.761C293.602 205.797 293.423 223.911 279.73 235.26C266.081 246.609 244.069 247.072 230.57 236.171C217.085 225.359 217.294 207.201 230.973 195.672C244.652 184.144 266.663 183.711 280.133 194.761Z" fill="url(#paint11_radial_4982_4615)"/>
<path fill-rule="evenodd" clip-rule="evenodd" d="M291.012 59.3292C304.481 70.3647 304.302 88.4785 290.609 99.8276C276.96 111.177 254.948 111.64 241.449 100.739C227.964 89.927 228.173 71.7684 241.852 60.2401C255.531 48.7117 277.542 48.2787 291.012 59.3292Z" fill="url(#paint12_radial_4982_4615)"/>
<path fill-rule="evenodd" clip-rule="evenodd" d="M413.199 194.761C426.669 205.797 426.49 223.911 412.796 235.26C399.147 246.609 377.136 247.072 363.636 236.171C350.152 225.359 350.361 207.201 364.04 195.672C377.718 184.144 399.73 183.711 413.199 194.761Z" fill="url(#paint13_radial_4982_4615)"/>
<path fill-rule="evenodd" clip-rule="evenodd" d="M280.133 339.985C293.602 351.021 293.423 369.135 279.73 380.484C266.081 391.833 244.069 392.296 230.57 381.395C217.085 370.583 217.294 352.425 230.973 340.896C244.652 329.368 266.663 328.935 280.133 339.985Z" fill="url(#paint14_radial_4982_4615)"/>
<defs>
<radialGradient id="paint0_radial_4982_4615" cx="0" cy="0" r="1" gradientUnits="userSpaceOnUse" gradientTransform="translate(216.07 332.16) scale(339.877 339.877)">
<stop offset="0.06" stop-color="#28C3FF"/>
<stop offset="0.93" stop-color="#2067EC"/>
<stop offset="0.94" stop-color="#1C67E7"/>
<stop offset="0.97" stop-color="#1269DA"/>
<stop offset="1" stop-color="#0F6AD6"/>
</radialGradient>
<linearGradient id="paint1_linear_4982_4615" x1="266.618" y1="442.516" x2="236.737" y2="-30.4296" gradientUnits="userSpaceOnUse">
<stop stop-color="#11A8F4"/>
<stop offset="0.98" stop-color="#194FBA"/>
</linearGradient>
<linearGradient id="paint2_linear_4982_4615" x1="8.09729" y1="408.394" x2="251.372" y2="418.653" gradientUnits="userSpaceOnUse">
<stop stop-color="#215ED8"/>
<stop offset="1" stop-color="#00ADFF"/>
</linearGradient>
<linearGradient id="paint3_linear_4982_4615" x1="258.181" y1="414.471" x2="504.995" y2="414.471" gradientUnits="userSpaceOnUse">
<stop stop-color="#00A9F3"/>
<stop offset="0.98" stop-color="#005DBF"/>
</linearGradient>
<radialGradient id="paint4_radial_4982_4615" cx="0" cy="0" r="1" gradientUnits="userSpaceOnUse" gradientTransform="translate(25.9685 349.655) rotate(-25.07) scale(67.9156 67.9156)">
<stop stop-color="#D9F2FC"/>
<stop offset="0.26" stop-color="#D6EFFA"/>
<stop offset="0.44" stop-color="#CDE8F6"/>
<stop offset="0.6" stop-color="#BDDDEF"/>
<stop offset="0.74" stop-color="#A8CCE5"/>
<stop offset="0.87" stop-color="#8CB6D8"/>
<stop offset="0.99" stop-color="#6A9CC8"/>
<stop offset="1" stop-color="#679AC7"/>
</radialGradient>
<radialGradient id="paint5_radial_4982_4615" cx="0" cy="0" r="1" gradientUnits="userSpaceOnUse" gradientTransform="translate(182.116 549.671) rotate(-25.07) scale(67.9156 67.9156)">
<stop stop-color="#D9F2FC"/>
<stop offset="0.26" stop-color="#D6EFFA"/>
<stop offset="0.44" stop-color="#CDE8F6"/>
<stop offset="0.6" stop-color="#BDDDEF"/>
<stop offset="0.74" stop-color="#A8CCE5"/>
<stop offset="0.87" stop-color="#8CB6D8"/>
<stop offset="0.99" stop-color="#6A9CC8"/>
<stop offset="1" stop-color="#679AC7"/>
</radialGradient>
<radialGradient id="paint6_radial_4982_4615" cx="0" cy="0" r="1" gradientUnits="userSpaceOnUse" gradientTransform="translate(343.764 478.635) rotate(-40.46) scale(58.4182 58.4182)">
<stop stop-color="#D9F2FC"/>
<stop offset="0.26" stop-color="#D6EFFA"/>
<stop offset="0.44" stop-color="#CDE8F6"/>
<stop offset="0.6" stop-color="#BDDDEF"/>
<stop offset="0.74" stop-color="#A8CCE5"/>
<stop offset="0.87" stop-color="#8CB6D8"/>
<stop offset="0.99" stop-color="#6A9CC8"/>
<stop offset="1" stop-color="#679AC7"/>
</radialGradient>
<radialGradient id="paint7_radial_4982_4615" cx="0" cy="0" r="1" gradientUnits="userSpaceOnUse" gradientTransform="translate(343.766 538.102) rotate(-40.46) scale(58.4182 58.4182)">
<stop stop-color="#D9F2FC"/>
<stop offset="0.26" stop-color="#D6EFFA"/>
<stop offset="0.44" stop-color="#CDE8F6"/>
<stop offset="0.6" stop-color="#BDDDEF"/>
<stop offset="0.74" stop-color="#A8CCE5"/>
<stop offset="0.87" stop-color="#8CB6D8"/>
<stop offset="0.99" stop-color="#6A9CC8"/>
<stop offset="1" stop-color="#679AC7"/>
</radialGradient>
<radialGradient id="paint8_radial_4982_4615" cx="0" cy="0" r="1" gradientUnits="userSpaceOnUse" gradientTransform="translate(471.589 421.724) rotate(-40.46) scale(58.4182 58.4182)">
<stop stop-color="#D9F2FC"/>
<stop offset="0.26" stop-color="#D6EFFA"/>
<stop offset="0.44" stop-color="#CDE8F6"/>
<stop offset="0.6" stop-color="#BDDDEF"/>
<stop offset="0.74" stop-color="#A8CCE5"/>
<stop offset="0.87" stop-color="#8CB6D8"/>
<stop offset="0.99" stop-color="#6A9CC8"/>
<stop offset="1" stop-color="#679AC7"/>
</radialGradient>
<radialGradient id="paint9_radial_4982_4615" cx="0" cy="0" r="1" gradientUnits="userSpaceOnUse" gradientTransform="translate(465.278 353.918) rotate(-40.46) scale(58.4182 58.4182)">
<stop stop-color="#D9F2FC"/>
<stop offset="0.26" stop-color="#D6EFFA"/>
<stop offset="0.44" stop-color="#CDE8F6"/>
<stop offset="0.6" stop-color="#BDDDEF"/>
<stop offset="0.74" stop-color="#A8CCE5"/>
<stop offset="0.87" stop-color="#8CB6D8"/>
<stop offset="0.99" stop-color="#6A9CC8"/>
<stop offset="1" stop-color="#679AC7"/>
</radialGradient>
<radialGradient id="paint10_radial_4982_4615" cx="0" cy="0" r="1" gradientUnits="userSpaceOnUse" gradientTransform="translate(96.9781 189.575) rotate(50.25) scale(66.5119 66.5119)">
<stop stop-color="#F2FBFF"/>
<stop offset="0.28" stop-color="#EFF9FE"/>
<stop offset="0.47" stop-color="#E6F3FB"/>
<stop offset="0.64" stop-color="#D6E9F7"/>
<stop offset="0.79" stop-color="#C1DBF1"/>
<stop offset="0.93" stop-color="#A5C9EA"/>
<stop offset="1" stop-color="#95BFE6"/>
</radialGradient>
<radialGradient id="paint11_radial_4982_4615" cx="0" cy="0" r="1" gradientUnits="userSpaceOnUse" gradientTransform="translate(233.1 189.56) rotate(50.25) scale(66.5119 66.5119)">
<stop stop-color="#F2FBFF"/>
<stop offset="0.28" stop-color="#EFF9FE"/>
<stop offset="0.47" stop-color="#E6F3FB"/>
<stop offset="0.64" stop-color="#D6E9F7"/>
<stop offset="0.79" stop-color="#C1DBF1"/>
<stop offset="0.93" stop-color="#A5C9EA"/>
<stop offset="1" stop-color="#95BFE6"/>
</radialGradient>
<radialGradient id="paint12_radial_4982_4615" cx="0" cy="0" r="1" gradientUnits="userSpaceOnUse" gradientTransform="translate(243.979 54.1282) rotate(50.25) scale(66.5119 66.5119)">
<stop stop-color="#F2FBFF"/>
<stop offset="0.28" stop-color="#EFF9FE"/>
<stop offset="0.47" stop-color="#E6F3FB"/>
<stop offset="0.64" stop-color="#D6E9F7"/>
<stop offset="0.79" stop-color="#C1DBF1"/>
<stop offset="0.93" stop-color="#A5C9EA"/>
<stop offset="1" stop-color="#95BFE6"/>
</radialGradient>
<radialGradient id="paint13_radial_4982_4615" cx="0" cy="0" r="1" gradientUnits="userSpaceOnUse" gradientTransform="translate(366.176 189.552) rotate(50.25) scale(66.5119 66.5119)">
<stop stop-color="#F2FBFF"/>
<stop offset="0.28" stop-color="#EFF9FE"/>
<stop offset="0.47" stop-color="#E6F3FB"/>
<stop offset="0.64" stop-color="#D6E9F7"/>
<stop offset="0.79" stop-color="#C1DBF1"/>
<stop offset="0.93" stop-color="#A5C9EA"/>
<stop offset="1" stop-color="#95BFE6"/>
</radialGradient>
<radialGradient id="paint14_radial_4982_4615" cx="0" cy="0" r="1" gradientUnits="userSpaceOnUse" gradientTransform="translate(233.116 334.791) rotate(50.25) scale(66.5119 66.5119)">
<stop stop-color="#F2FBFF"/>
<stop offset="0.28" stop-color="#EFF9FE"/>
<stop offset="0.47" stop-color="#E6F3FB"/>
<stop offset="0.64" stop-color="#D6E9F7"/>
<stop offset="0.79" stop-color="#C1DBF1"/>
<stop offset="0.93" stop-color="#A5C9EA"/>
<stop offset="1" stop-color="#95BFE6"/>
</radialGradient>
</defs>
</svg>
